<svg version="1.1" xmlns="http://www.w3.org/2000/svg" viewBox="0 0 1459.22265625 761.4297324477666" width="2918.4453125" height="1522.8594648955332">
  <!-- svg-source:excalidraw -->
  
  <defs>
    <style class="style-fonts">
      @font-face {
        font-family: "Virgil";
        src: url("https://excalidraw.com/Virgil.woff2");
      }
      @font-face {
        font-family: "Cascadia";
        src: url("https://excalidraw.com/Cascadia.woff2");
      }
    </style>
  </defs>
  <rect x="0" y="0" width="1459.22265625" height="761.4297324477666" fill="#ffffff"></rect><g stroke-linecap="round" transform="translate(10 155.37504494776653) rotate(0 164.40234375 291.875)"><path d="M32 0 M32 0 C120.83 1.33, 209.82 0.74, 296.8 0 M32 0 C112.89 -0.58, 193.42 -1.9, 296.8 0 M296.8 0 C319.6 -0.3, 327.66 11.18, 328.8 32 M296.8 0 C317.07 0.87, 330.65 11.22, 328.8 32 M328.8 32 C328.56 235.89, 327.8 440.7, 328.8 551.75 M328.8 32 C327.44 137.74, 327.18 244.62, 328.8 551.75 M328.8 551.75 C327.8 573.47, 319.17 583.16, 296.8 583.75 M328.8 551.75 C327.47 572.07, 317.93 581.79, 296.8 583.75 M296.8 583.75 C224.91 585.63, 150.99 584.66, 32 583.75 M296.8 583.75 C240.29 582, 184.34 582.52, 32 583.75 M32 583.75 C12.36 583.58, -0.82 571.53, 0 551.75 M32 583.75 C9.64 584.72, -2.09 570.88, 0 551.75 M0 551.75 C-0.58 408, 0.06 262.73, 0 32 M0 551.75 C1.46 344.53, 1.88 136.32, 0 32 M0 32 C-0.55 10.25, 9.67 -0.78, 32 0 M0 32 C-0.93 9.2, 12.35 1.2, 32 0" stroke="#000000" stroke-width="1" fill="none"></path></g><g transform="translate(33.8671875 186.53520119776653) rotate(352.6270699482365 73.77993774414062 12.5)"><text x="0" y="0" font-family="Virgil, Segoe UI Emoji" font-size="20px" fill="#000000" text-anchor="start" style="white-space: pre;" direction="ltr" dominant-baseline="text-before-edge">Frontend Client</text></g><g stroke-linecap="round" transform="translate(703.5390625 146.40629494776653) rotate(0 166.62890625 302.51171875)"><path d="M202.36 7.46 C215.88 7.77, 229.34 21.02, 241.59 32.12 C253.84 43.22, 265.53 57.77, 275.86 74.06 C286.19 90.36, 295.75 109.41, 303.57 129.91 C311.4 150.4, 318.09 173.55, 322.81 197.04 C327.54 220.53, 330.55 245.86, 331.91 270.86 C333.27 295.87, 332.89 322.05, 330.98 347.07 C329.07 372.09, 325.86 397.85, 320.44 420.99 C315.02 444.13, 306.96 466.01, 298.46 485.91 C289.95 505.8, 280.27 524.94, 269.4 540.39 C258.52 555.83, 245.8 568.4, 233.18 578.56 C220.56 588.73, 207.21 597.01, 193.67 601.38 C180.14 605.74, 165.79 606.87, 151.97 604.77 C138.15 602.68, 123.82 597.32, 110.74 588.81 C97.67 580.3, 84.81 567.7, 73.52 553.7 C62.23 539.69, 52.19 523.33, 43 504.78 C33.82 486.23, 24.94 464.74, 18.4 442.42 C11.85 420.1, 6.93 395.26, 3.74 370.84 C0.55 346.42, -1.08 321.06, -0.72 295.9 C-0.36 270.73, 2.02 243.99, 5.9 219.86 C9.77 195.72, 15.4 172.6, 22.55 151.1 C29.69 129.6, 39.15 108.88, 48.75 90.86 C58.35 72.85, 68.44 56.02, 80.15 43.02 C91.86 30.02, 105.73 19.87, 119.04 12.84 C132.35 5.81, 144.64 1.05, 160 0.85 C175.35 0.64, 201.63 8.16, 211.18 11.6 C220.74 15.04, 218.29 16.68, 217.32 21.5 M221.63 18.69 C234.88 22.21, 248.37 39.53, 259.78 53.55 C271.19 67.56, 280.63 84.11, 290.09 102.79 C299.54 121.46, 310.22 143.1, 316.53 165.61 C322.84 188.12, 325.01 213.29, 327.94 237.86 C330.87 262.42, 334.53 288.04, 334.11 313 C333.7 337.95, 329.63 363.7, 325.43 387.57 C321.23 411.45, 315.53 434.63, 308.92 456.24 C302.3 477.84, 295.35 499.2, 285.74 517.22 C276.13 535.23, 263.14 551.8, 251.23 564.32 C239.33 576.85, 227.28 585.75, 214.3 592.37 C201.33 599, 187.46 603.24, 173.37 604.07 C159.28 604.9, 143.56 602.68, 129.76 597.36 C115.96 592.03, 103.01 583.45, 90.56 572.13 C78.11 560.8, 65.22 546.1, 55.06 529.42 C44.9 512.74, 36.94 492.51, 29.58 472.03 C22.23 451.54, 15.64 429.9, 10.93 406.52 C6.22 383.14, 3 356.87, 1.31 331.72 C-0.37 306.58, -1.2 280.29, 0.82 255.66 C2.84 231.04, 7.97 207.28, 13.43 183.97 C18.88 160.65, 25.1 136.08, 33.56 115.78 C42.02 95.47, 53.03 77.45, 64.17 62.16 C75.31 46.87, 87.47 33.62, 100.39 24.05 C113.3 14.49, 128.15 8.77, 141.66 4.76 C155.18 0.75, 167.99 -1.97, 181.47 -0.01 C194.94 1.95, 215.73 12.4, 222.49 16.49 C229.25 20.59, 222.65 19.6, 222.01 24.54" stroke="#000000" stroke-width="1" fill="none"></path></g><g transform="translate(849.09375 178.35941994776653) rotate(10.152661958511747 39.65997314453125 12.5)"><text x="0" y="0" font-family="Virgil, Segoe UI Emoji" font-size="20px" fill="#000000" text-anchor="start" style="white-space: pre;" direction="ltr" dominant-baseline="text-before-edge">Backend</text></g><g stroke-linecap="round" transform="translate(37.703125 248.86723244776653) rotate(0 139.765625 211.435546875)"><path d="M32 0 M32 0 C89.82 2.14, 146.88 1.97, 247.53 0 M32 0 C111.95 -0.31, 192.16 -0.15, 247.53 0 M247.53 0 C270.07 -1.83, 279.21 10.8, 279.53 32 M247.53 0 C267.07 0.06, 280.23 9.14, 279.53 32 M279.53 32 C281.91 127.57, 280.95 222.6, 279.53 390.87 M279.53 32 C277.61 172.51, 278.19 313.58, 279.53 390.87 M279.53 390.87 C281.13 413.29, 267.5 422.57, 247.53 422.87 M279.53 390.87 C279.25 413.8, 266.75 424.85, 247.53 422.87 M247.53 422.87 C163.68 424.89, 77.8 424.46, 32 422.87 M247.53 422.87 C204.66 421.71, 161.19 422.52, 32 422.87 M32 422.87 C10.89 421.59, -1.43 410.3, 0 390.87 M32 422.87 C10.35 424.82, 0.64 411.41, 0 390.87 M0 390.87 C-0.58 295.34, -0.62 198.63, 0 32 M0 390.87 C1.84 276.11, 1.69 161.45, 0 32 M0 32 C-0.73 11.13, 8.71 -0.03, 32 0 M0 32 C0.58 11.45, 9.22 0.06, 32 0" stroke="#000000" stroke-width="1" fill="none"></path></g><g transform="translate(54.761823340748265 256.1322729841917) rotate(351.6926581258268 63.364532470703125 9.864232039821331)"><text x="0" y="0" font-family="Virgil, Segoe UI Emoji" font-size="15.78277126371414px" fill="#000000" text-anchor="start" style="white-space: pre;" direction="ltr" dominant-baseline="text-before-edge">image generation</text></g><g stroke-linecap="round" transform="translate(47.33984375 293.8984824477665) rotate(0 94 21)"><path d="M2.79 2.43 C2.79 2.43, 2.79 2.43, 2.79 2.43 M2.79 2.43 C2.79 2.43, 2.79 2.43, 2.79 2.43 M0.57 11.09 C2.04 9.4, 3.51 7.7, 7.78 2.79 M0.57 11.09 C2.63 8.72, 4.69 6.35, 7.78 2.79 M0.3 17.49 C3.3 14.04, 6.29 10.6, 13.42 2.4 M0.3 17.49 C3.5 13.81, 6.7 10.13, 13.42 2.4 M0.7 23.13 C7.45 15.37, 14.19 7.61, 18.41 2.76 M0.7 23.13 C7.77 15, 14.84 6.86, 18.41 2.76 M0.44 29.53 C7.53 21.37, 14.62 13.22, 24.06 2.36 M0.44 29.53 C5.84 23.32, 11.24 17.1, 24.06 2.36 M2.14 33.66 C7.87 27.07, 13.6 20.48, 29.04 2.72 M2.14 33.66 C9.38 25.34, 16.62 17.01, 29.04 2.72 M3.19 38.55 C11.5 29, 19.81 19.44, 34.69 2.33 M3.19 38.55 C13.84 26.31, 24.48 14.06, 34.69 2.33 M6.21 41.18 C17.66 28, 29.11 14.83, 39.67 2.69 M6.21 41.18 C14.79 31.31, 23.36 21.45, 39.67 2.69 M10.54 42.29 C17.9 33.83, 25.26 25.37, 45.32 2.29 M10.54 42.29 C19.91 31.51, 29.28 20.73, 45.32 2.29 M16.19 41.9 C27.67 28.68, 39.16 15.47, 50.3 2.65 M16.19 41.9 C28.82 27.37, 41.45 12.84, 50.3 2.65 M21.17 42.26 C28.56 33.76, 35.94 25.27, 55.95 2.26 M21.17 42.26 C32.28 29.48, 43.39 16.7, 55.95 2.26 M26.82 41.86 C40.16 26.51, 53.51 11.16, 60.93 2.62 M26.82 41.86 C39.41 27.38, 51.99 12.9, 60.93 2.62 M31.8 42.22 C39.17 33.75, 46.53 25.28, 66.58 2.22 M31.8 42.22 C41.64 30.91, 51.47 19.6, 66.58 2.22 M37.45 41.83 C45.19 32.92, 52.93 24.01, 71.56 2.58 M37.45 41.83 C46.28 31.66, 55.12 21.5, 71.56 2.58 M42.43 42.19 C53.97 28.91, 65.51 15.64, 77.21 2.19 M42.43 42.19 C54.68 28.1, 66.94 14, 77.21 2.19 M48.08 41.79 C61.45 26.41, 74.82 11.03, 82.19 2.55 M48.08 41.79 C61.56 26.29, 75.04 10.78, 82.19 2.55 M53.06 42.15 C65.97 27.3, 78.89 12.45, 87.84 2.15 M53.06 42.15 C60.71 33.36, 68.35 24.57, 87.84 2.15 M58.05 42.51 C70.59 28.09, 83.13 13.67, 92.82 2.51 M58.05 42.51 C71.29 27.29, 84.52 12.06, 92.82 2.51 M63.69 42.12 C74.31 29.91, 84.93 17.69, 98.47 2.12 M63.69 42.12 C76.74 27.11, 89.79 12.1, 98.47 2.12 M68.68 42.48 C76.81 33.12, 84.94 23.77, 103.45 2.48 M68.68 42.48 C81.45 27.79, 94.22 13.1, 103.45 2.48 M74.32 42.08 C87.48 26.95, 100.64 11.81, 108.44 2.84 M74.32 42.08 C81.39 33.95, 88.46 25.82, 108.44 2.84 M79.31 42.44 C87.63 32.87, 95.96 23.3, 114.08 2.44 M79.31 42.44 C91.66 28.24, 104.01 14.04, 114.08 2.44 M84.95 42.05 C93.17 32.6, 101.38 23.16, 119.07 2.8 M84.95 42.05 C95.27 30.19, 105.58 18.32, 119.07 2.8 M89.94 42.41 C97.98 33.16, 106.02 23.92, 124.71 2.41 M89.94 42.41 C100.13 30.69, 110.31 18.98, 124.71 2.41 M95.58 42.02 C108.39 27.28, 121.2 12.55, 129.7 2.77 M95.58 42.02 C107.39 28.43, 119.2 14.85, 129.7 2.77 M100.57 42.38 C114.13 26.78, 127.69 11.18, 135.34 2.38 M100.57 42.38 C113.7 27.27, 126.83 12.16, 135.34 2.38 M106.21 41.98 C115.46 31.34, 124.71 20.7, 140.33 2.74 M106.21 41.98 C113.8 33.26, 121.38 24.54, 140.33 2.74 M111.2 42.34 C122.43 29.42, 133.67 16.5, 145.97 2.34 M111.2 42.34 C123.54 28.15, 135.88 13.96, 145.97 2.34 M116.85 41.95 C126.6 30.72, 136.36 19.5, 150.96 2.7 M116.85 41.95 C127.52 29.67, 138.19 17.39, 150.96 2.7 M121.83 42.31 C134.5 27.74, 147.16 13.17, 156.6 2.31 M121.83 42.31 C129.42 33.57, 137.01 24.84, 156.6 2.31 M127.48 41.91 C139.57 28, 151.66 14.09, 161.59 2.67 M127.48 41.91 C141.08 26.26, 154.69 10.61, 161.59 2.67 M132.46 42.27 C141.98 31.32, 151.51 20.37, 167.23 2.27 M132.46 42.27 C143.26 29.85, 154.06 17.43, 167.23 2.27 M138.11 41.88 C147.93 30.58, 157.75 19.28, 172.22 2.63 M138.11 41.88 C150.36 27.78, 162.61 13.69, 172.22 2.63 M143.09 42.24 C155.1 28.43, 167.1 14.62, 178.52 1.48 M143.09 42.24 C150.96 33.18, 158.84 24.13, 178.52 1.48 M148.74 41.84 C158.26 30.89, 167.78 19.94, 183.51 1.84 M148.74 41.84 C158.16 31, 167.59 20.15, 183.51 1.84 M153.72 42.2 C162.85 31.7, 171.98 21.2, 187.18 3.71 M153.72 42.2 C163.51 30.94, 173.31 19.67, 187.18 3.71 M159.37 41.81 C170.49 29.02, 181.61 16.22, 188.89 7.85 M159.37 41.81 C168.55 31.25, 177.73 20.69, 188.89 7.85 M164.35 42.17 C172.43 32.88, 180.51 23.59, 189.94 12.73 M164.35 42.17 C172.27 33.06, 180.19 23.95, 189.94 12.73 M170 41.77 C174.82 36.22, 179.64 30.68, 190.33 18.38 M170 41.77 C175.14 35.86, 180.28 29.94, 190.33 18.38 M174.98 42.13 C180.02 36.33, 185.07 30.53, 190.07 24.78 M174.98 42.13 C178.13 38.51, 181.29 34.88, 190.07 24.78 M179.31 43.25 C182.98 39.03, 186.65 34.81, 189.15 31.93 M179.31 43.25 C182.95 39.06, 186.59 34.87, 189.15 31.93" stroke="#ced4da" stroke-width="0.5" fill="none"></path><path d="M10.5 0 M10.5 0 C64.17 0, 117.83 0, 177.5 0 M10.5 0 C73.17 0, 135.84 0, 177.5 0 M177.5 0 C184.5 0, 188 3.5, 188 10.5 M177.5 0 C184.5 0, 188 3.5, 188 10.5 M188 10.5 C188 17.68, 188 24.86, 188 31.5 M188 10.5 C188 18.55, 188 26.6, 188 31.5 M188 31.5 C188 38.5, 184.5 42, 177.5 42 M188 31.5 C188 38.5, 184.5 42, 177.5 42 M177.5 42 C134.91 42, 92.32 42, 10.5 42 M177.5 42 C125.13 42, 72.77 42, 10.5 42 M10.5 42 C3.5 42, 0 38.5, 0 31.5 M10.5 42 C3.5 42, 0 38.5, 0 31.5 M0 31.5 C0 23.67, 0 15.84, 0 10.5 M0 31.5 C0 24.76, 0 18.02, 0 10.5 M0 10.5 C0 3.5, 3.5 0, 10.5 0 M0 10.5 C0 3.5, 3.5 0, 10.5 0" stroke="#000000" stroke-width="1" fill="none"></path></g><g transform="translate(98.55587005615234 304.8984824477665) rotate(0 42.783973693847656 10)"><text x="42.783973693847656" y="0" font-family="Virgil, Segoe UI Emoji" font-size="16px" fill="#000000" text-anchor="middle" style="white-space: pre;" direction="ltr" dominant-baseline="text-before-edge">create list</text></g><g stroke-linecap="round"><g transform="translate(239.20703125 300.6055136977665) rotate(0 259.5530067695463 -29.936058517829196)"><path d="M0 0 C45.85 -9.5, 188.57 -48.4, 275.09 -56.98 C361.6 -65.56, 478.44 -52.4, 519.11 -51.48 M0 0 C45.85 -9.5, 188.57 -48.4, 275.09 -56.98 C361.6 -65.56, 478.44 -52.4, 519.11 -51.48" stroke="#000000" stroke-width="1" fill="none"></path></g><g transform="translate(239.20703125 300.6055136977665) rotate(0 259.5530067695463 -29.936058517829196)"><path d="M490.36 -42.91 C500.75 -46.01, 511.14 -49.11, 519.11 -51.48 M490.36 -42.91 C500.35 -45.89, 510.34 -48.87, 519.11 -51.48" stroke="#000000" stroke-width="1" fill="none"></path></g><g transform="translate(239.20703125 300.6055136977665) rotate(0 259.5530067695463 -29.936058517829196)"><path d="M491.57 -63.39 C501.52 -59.09, 511.48 -54.78, 519.11 -51.48 M491.57 -63.39 C501.14 -59.25, 510.71 -55.12, 519.11 -51.48" stroke="#000000" stroke-width="1" fill="none"></path></g></g><mask></mask><g stroke-linecap="round" transform="translate(755.53515625 229.36332619776653) rotate(0 116.537109375 188.537109375)"><path d="M32 0 M32 0 C72.6 0, 113.19 0, 201.07 0 M32 0 C93.34 0, 154.68 0, 201.07 0 M201.07 0 C222.41 0, 233.07 10.67, 233.07 32 M201.07 0 C222.41 0, 233.07 10.67, 233.07 32 M233.07 32 C233.07 140.34, 233.07 248.68, 233.07 345.07 M233.07 32 C233.07 154.08, 233.07 276.17, 233.07 345.07 M233.07 345.07 C233.07 366.41, 222.41 377.07, 201.07 377.07 M233.07 345.07 C233.07 366.41, 222.41 377.07, 201.07 377.07 M201.07 377.07 C160.94 377.07, 120.8 377.07, 32 377.07 M201.07 377.07 C165.07 377.07, 129.06 377.07, 32 377.07 M32 377.07 C10.67 377.07, 0 366.41, 0 345.07 M32 377.07 C10.67 377.07, 0 366.41, 0 345.07 M0 345.07 C0 227.44, 0 109.8, 0 32 M0 345.07 C0 253.66, 0 162.24, 0 32 M0 32 C0 10.67, 10.67 0, 32 0 M0 32 C0 10.67, 10.67 0, 32 0" stroke="#000000" stroke-width="1" fill="none"></path></g><g stroke-linecap="round" transform="translate(764.03515625 241.78520119776653) rotate(0 49.08984375 23.841796875)"><path d="M3.17 2.76 C3.17 2.76, 3.17 2.76, 3.17 2.76 M3.17 2.76 C3.17 2.76, 3.17 2.76, 3.17 2.76 M1.6 10.67 C4.43 7.41, 7.26 4.16, 8.82 2.36 M1.6 10.67 C3.12 8.91, 4.65 7.16, 8.82 2.36 M1.99 16.31 C5.31 12.5, 8.62 8.69, 14.46 1.97 M1.99 16.31 C6.12 11.57, 10.24 6.82, 14.46 1.97 M1.73 22.71 C7.22 16.39, 12.71 10.08, 19.45 2.33 M1.73 22.71 C5.85 17.97, 9.97 13.23, 19.45 2.33 M1.47 29.1 C9.12 20.3, 16.77 11.5, 25.09 1.93 M1.47 29.1 C9.77 19.56, 18.07 10.01, 25.09 1.93 M1.87 34.75 C11.98 23.11, 22.09 11.48, 30.08 2.29 M1.87 34.75 C10.86 24.4, 19.85 14.06, 30.08 2.29 M2.26 40.39 C10.43 30.99, 18.61 21.58, 35.72 1.9 M2.26 40.39 C15.13 25.58, 28 10.78, 35.72 1.9 M3.97 44.52 C12.05 35.23, 20.13 25.93, 40.71 2.26 M3.97 44.52 C16.45 30.16, 28.94 15.79, 40.71 2.26 M6.33 47.9 C16.73 35.93, 27.14 23.97, 46.35 1.87 M6.33 47.9 C19.84 32.36, 33.34 16.83, 46.35 1.87 M10.66 49.02 C22.99 34.83, 35.32 20.65, 51.34 2.23 M10.66 49.02 C19.4 38.96, 28.15 28.9, 51.34 2.23 M14.99 50.13 C30.97 31.75, 46.95 13.37, 56.98 1.83 M14.99 50.13 C28.25 34.89, 41.5 19.64, 56.98 1.83 M19.98 50.49 C30.2 38.73, 40.43 26.97, 61.97 2.19 M19.98 50.49 C28.85 40.29, 37.72 30.08, 61.97 2.19 M25.62 50.1 C37.89 35.99, 50.15 21.88, 67.61 1.8 M25.62 50.1 C39.19 34.49, 52.76 18.88, 67.61 1.8 M30.61 50.46 C39.13 40.66, 47.65 30.85, 72.6 2.16 M30.61 50.46 C40.88 38.64, 51.16 26.82, 72.6 2.16 M36.25 50.06 C47.06 37.63, 57.87 25.19, 78.24 1.76 M36.25 50.06 C51.48 32.55, 66.7 15.03, 78.24 1.76 M41.24 50.42 C56.77 32.56, 72.3 14.69, 83.23 2.12 M41.24 50.42 C57.17 32.1, 73.1 13.77, 83.23 2.12 M46.88 50.03 C55.94 39.61, 65 29.18, 88.87 1.73 M46.88 50.03 C60.94 33.85, 75 17.68, 88.87 1.73 M51.87 50.39 C62.77 37.85, 73.67 25.31, 93.86 2.09 M51.87 50.39 C65.65 34.54, 79.42 18.69, 93.86 2.09 M57.51 49.99 C68.65 37.18, 79.79 24.36, 96.88 4.71 M57.51 49.99 C70.87 34.63, 84.23 19.26, 96.88 4.71 M62.5 50.35 C70.06 41.66, 77.62 32.96, 97.93 9.6 M62.5 50.35 C74.97 36.01, 87.44 21.67, 97.93 9.6 M68.14 49.96 C75.73 41.23, 83.33 32.49, 98.32 15.24 M68.14 49.96 C79.43 36.98, 90.71 24, 98.32 15.24 M73.13 50.32 C80.6 41.72, 88.08 33.13, 98.06 21.64 M73.13 50.32 C82.11 39.98, 91.1 29.65, 98.06 21.64 M78.77 49.93 C84.49 43.35, 90.2 36.78, 98.45 27.28 M78.77 49.93 C83.39 44.61, 88.02 39.29, 98.45 27.28 M83.76 50.29 C86.84 46.74, 89.92 43.2, 98.19 33.68 M83.76 50.29 C86.81 46.78, 89.86 43.26, 98.19 33.68 M89.4 49.89 C91.97 46.93, 94.54 43.98, 99.9 37.82 M89.4 49.89 C91.68 47.27, 93.95 44.66, 99.9 37.82 M4.88 46.21 C4.88 46.21, 4.88 46.21, 4.88 46.21 M4.88 46.21 C4.88 46.21, 4.88 46.21, 4.88 46.21 M12.04 47.12 C8.22 43.8, 4.4 40.48, 0.72 37.28 M12.04 47.12 C9.63 45.03, 7.22 42.93, 0.72 37.28 M18.43 47.38 C14.38 43.86, 10.32 40.33, 1.08 32.3 M18.43 47.38 C14.69 44.13, 10.95 40.88, 1.08 32.3 M24.08 46.99 C17.85 41.57, 11.62 36.16, 0.68 26.65 M24.08 46.99 C19.06 42.62, 14.04 38.26, 0.68 26.65 M30.48 47.25 C19.79 37.96, 9.11 28.67, 1.04 21.66 M30.48 47.25 C20.86 38.89, 11.24 30.53, 1.04 21.66 M36.87 47.51 C25.98 38.05, 15.09 28.58, 1.4 16.68 M36.87 47.51 C29.35 40.97, 21.82 34.43, 1.4 16.68 M42.52 47.12 C27.4 33.98, 12.29 20.84, 1.01 11.03 M42.52 47.12 C26.04 32.8, 9.57 18.48, 1.01 11.03 M48.91 47.38 C39.03 38.79, 29.14 30.19, 2.12 6.7 M48.91 47.38 C35.16 35.42, 21.4 23.46, 2.12 6.7 M54.56 46.98 C35.85 30.72, 17.14 14.46, 3.24 2.37 M54.56 46.98 C37.82 32.44, 21.09 17.89, 3.24 2.37 M60.96 47.25 C44.48 32.93, 28.01 18.61, 7.37 0.67 M60.96 47.25 C42.37 31.09, 23.78 14.93, 7.37 0.67 M67.35 47.51 C49.8 32.25, 32.25 17, 12.26 -0.38 M67.35 47.51 C47.35 30.12, 27.35 12.74, 12.26 -0.38 M73 47.11 C62.11 37.65, 51.22 28.19, 18.66 -0.12 M73 47.11 C53.64 30.29, 34.29 13.46, 18.66 -0.12 M79.39 47.37 C62.49 32.68, 45.59 17.99, 24.3 -0.52 M79.39 47.37 C68.12 37.57, 56.84 27.77, 24.3 -0.52 M85.04 46.98 C70.28 34.15, 55.53 21.33, 30.7 -0.26 M85.04 46.98 C68.43 32.54, 51.82 18.1, 30.7 -0.26 M88.42 44.62 C76.11 33.92, 63.8 23.22, 36.34 -0.65 M88.42 44.62 C72.97 31.19, 57.52 17.76, 36.34 -0.65 M94.81 44.88 C75.08 27.72, 55.34 10.56, 42.74 -0.39 M94.81 44.88 C80.36 32.31, 65.9 19.75, 42.74 -0.39 M97.44 41.86 C80.95 27.53, 64.47 13.2, 49.14 -0.13 M97.44 41.86 C81.37 27.89, 65.3 13.92, 49.14 -0.13 M98.55 37.53 C82.91 23.93, 67.26 10.33, 54.78 -0.52 M98.55 37.53 C83.12 24.12, 67.69 10.7, 54.78 -0.52 M100.42 33.85 C89.36 24.24, 78.3 14.62, 61.18 -0.26 M100.42 33.85 C86.48 21.73, 72.53 9.61, 61.18 -0.26 M100.03 28.21 C89.47 19.04, 78.92 9.86, 66.82 -0.66 M100.03 28.21 C89.75 19.28, 79.47 10.34, 66.82 -0.66 M100.39 23.22 C93.73 17.44, 87.07 11.65, 73.22 -0.39 M100.39 23.22 C93.45 17.2, 86.52 11.17, 73.22 -0.39 M99.99 17.58 C92.9 11.42, 85.81 5.25, 79.62 -0.13 M99.99 17.58 C93.35 11.8, 86.7 6.02, 79.62 -0.13 M99.6 11.94 C96.1 8.89, 92.59 5.85, 85.26 -0.53 M99.6 11.94 C95.7 8.55, 91.81 5.16, 85.26 -0.53" stroke="#ced4da" stroke-width="0.5" fill="none"></path><path d="M11.92 0 M11.92 0 C27.7 0, 43.47 0, 86.26 0 M11.92 0 C32.62 0, 53.32 0, 86.26 0 M86.26 0 C94.21 0, 98.18 3.97, 98.18 11.92 M86.26 0 C94.21 0, 98.18 3.97, 98.18 11.92 M98.18 11.92 C98.18 20.7, 98.18 29.49, 98.18 35.76 M98.18 11.92 C98.18 17.82, 98.18 23.72, 98.18 35.76 M98.18 35.76 C98.18 43.71, 94.21 47.68, 86.26 47.68 M98.18 35.76 C98.18 43.71, 94.21 47.68, 86.26 47.68 M86.26 47.68 C59.83 47.68, 33.41 47.68, 11.92 47.68 M86.26 47.68 C70.22 47.68, 54.19 47.68, 11.92 47.68 M11.92 47.68 C3.97 47.68, 0 43.71, 0 35.76 M11.92 47.68 C3.97 47.68, 0 43.71, 0 35.76 M0 35.76 C0 30.77, 0 25.78, 0 11.92 M0 35.76 C0 27.35, 0 18.93, 0 11.92 M0 11.92 C0 3.97, 3.97 0, 11.92 0 M0 11.92 C0 3.97, 3.97 0, 11.92 0" stroke="#000000" stroke-width="1" fill="none"></path></g><g transform="translate(788.3730163574219 255.62699807276653) rotate(0 24.751983642578125 10)"><text x="24.751983642578125" y="0" font-family="Virgil, Segoe UI Emoji" font-size="16px" fill="#000000" text-anchor="middle" style="white-space: pre;" direction="ltr" dominant-baseline="text-before-edge">router</text></g><g stroke-linecap="round" transform="translate(841.87890625 285.2852011977665) rotate(0 74.5 70)"><path d="M12.84 58.86 C12.84 58.86, 12.84 58.86, 12.84 58.86 M12.84 58.86 C12.84 58.86, 12.84 58.86, 12.84 58.86 M6.02 72.81 C16.98 60.2, 27.94 47.59, 42.76 30.54 M6.02 72.81 C16.14 61.17, 26.25 49.53, 42.76 30.54 M8.38 76.19 C29.82 51.53, 51.25 26.87, 63.49 12.79 M8.38 76.19 C22.45 60, 36.52 43.82, 63.49 12.79 M10.09 80.32 C29.12 58.43, 48.14 36.55, 75.69 4.85 M10.09 80.32 C24.5 63.75, 38.9 47.17, 75.69 4.85 M13.11 82.94 C37.74 54.61, 62.36 26.28, 80.03 5.96 M13.11 82.94 C33.69 59.27, 54.27 35.59, 80.03 5.96 M16.13 85.57 C39.38 58.81, 62.64 32.06, 83.04 8.59 M16.13 85.57 C32.79 66.4, 49.45 47.23, 83.04 8.59 M19.15 88.19 C35.14 69.79, 51.14 51.39, 86.06 11.21 M19.15 88.19 C44.98 58.48, 70.81 28.76, 86.06 11.21 M21.51 91.57 C46.33 63.02, 71.14 34.47, 89.08 13.84 M21.51 91.57 C48.2 60.86, 74.9 30.15, 89.08 13.84 M24.53 94.2 C44.74 70.94, 64.96 47.69, 92.1 16.46 M24.53 94.2 C45.39 70.2, 66.25 46.21, 92.1 16.46 M27.55 96.82 C45.93 75.67, 64.31 54.52, 95.12 19.09 M27.55 96.82 C43.6 78.35, 59.65 59.89, 95.12 19.09 M30.56 99.45 C52.32 74.42, 74.07 49.39, 98.14 21.71 M30.56 99.45 C57.07 68.96, 83.57 38.47, 98.14 21.71 M33.58 102.07 C54.62 77.87, 75.66 53.67, 101.16 24.33 M33.58 102.07 C47.43 86.15, 61.27 70.22, 101.16 24.33 M36.6 104.69 C53.84 84.86, 71.08 65.03, 103.52 27.71 M36.6 104.69 C60.12 77.64, 83.65 50.58, 103.52 27.71 M39.62 107.32 C63.79 79.52, 87.95 51.72, 106.54 30.34 M39.62 107.32 C57.93 86.25, 76.24 65.19, 106.54 30.34 M42.64 109.94 C64.93 84.3, 87.22 58.66, 109.56 32.96 M42.64 109.94 C56.03 94.54, 69.42 79.13, 109.56 32.96 M45.66 112.57 C60.65 95.33, 75.63 78.09, 112.58 35.59 M45.66 112.57 C63.67 91.85, 81.67 71.14, 112.58 35.59 M48.68 115.19 C72.2 88.13, 95.73 61.07, 115.6 38.21 M48.68 115.19 C72.09 88.26, 95.51 61.32, 115.6 38.21 M51.7 117.81 C73.5 92.74, 95.3 67.66, 117.96 41.59 M51.7 117.81 C75.87 90, 100.05 62.19, 117.96 41.59 M54.72 120.44 C80.76 90.48, 106.8 60.53, 120.98 44.21 M54.72 120.44 C75.34 96.72, 95.96 73, 120.98 44.21 M57.73 123.06 C73.1 105.39, 88.47 87.71, 124 46.84 M57.73 123.06 C83.11 93.87, 108.48 64.68, 124 46.84 M60.1 126.44 C81.1 102.28, 102.1 78.12, 127.01 49.46 M60.1 126.44 C86.38 96.21, 112.66 65.97, 127.01 49.46 M63.12 129.07 C83.98 105.06, 104.85 81.06, 129.38 52.84 M63.12 129.07 C82.59 106.67, 102.06 84.27, 129.38 52.84 M66.13 131.69 C82.51 112.85, 98.89 94.01, 132.4 55.46 M66.13 131.69 C79.51 116.31, 92.88 100.93, 132.4 55.46 M69.81 133.56 C88.63 111.91, 107.45 90.26, 135.42 58.09 M69.81 133.56 C90.57 109.68, 111.34 85.79, 135.42 58.09 M72.83 136.18 C92.68 113.35, 112.53 90.51, 138.43 60.71 M72.83 136.18 C95.39 110.23, 117.96 84.27, 138.43 60.71 M79.13 135.04 C96.78 114.73, 114.43 94.43, 141.45 63.34 M79.13 135.04 C92.73 119.39, 106.33 103.74, 141.45 63.34 M86.74 132.38 C101.93 114.9, 117.13 97.42, 143.82 66.72 M86.74 132.38 C105.19 111.15, 123.64 89.92, 143.82 66.72 M113.38 107.83 C124.89 94.58, 136.41 81.33, 144.87 71.6 M113.38 107.83 C120.14 100.05, 126.91 92.27, 144.87 71.6" stroke="#868e96" stroke-width="0.5" fill="none"></path><path d="M93.75 17.75 M93.75 17.75 C104.73 28.43, 115.7 39.1, 130.25 53.25 M93.75 17.75 C102.59 26.35, 111.44 34.95, 130.25 53.25 M130.25 53.25 C149 71, 149 71, 130.25 88.75 M130.25 53.25 C149 71, 149 71, 130.25 88.75 M130.25 88.75 C119.21 98.89, 108.16 109.02, 93.75 122.25 M130.25 88.75 C122.23 96.11, 114.21 103.47, 93.75 122.25 M93.75 122.25 C75 140, 75 140, 56.25 122.25 M93.75 122.25 C75 140, 75 140, 56.25 122.25 M56.25 122.25 C45.52 112.66, 34.79 103.08, 18.75 88.75 M56.25 122.25 C42.99 110.41, 29.73 98.56, 18.75 88.75 M18.75 88.75 C0 71, 0 71, 18.75 53.25 M18.75 88.75 C0 71, 0 71, 18.75 53.25 M18.75 53.25 C32.19 40.53, 45.62 27.81, 56.25 17.75 M18.75 53.25 C28.43 44.08, 38.12 34.91, 56.25 17.75 M56.25 17.75 C75 0, 75 0, 93.75 17.75 M56.25 17.75 C75 0, 75 0, 93.75 17.75" stroke="#000000" stroke-width="1" fill="none"></path></g><g transform="translate(886.5649185180664 325.2852011977665) rotate(0 30.063987731933594 30)"><text x="30.063987731933594" y="0" font-family="Virgil, Segoe UI Emoji" font-size="16px" fill="#000000" text-anchor="middle" style="white-space: pre;" direction="ltr" dominant-baseline="text-before-edge">create </text><text x="30.063987731933594" y="20" font-family="Virgil, Segoe UI Emoji" font-size="16px" fill="#000000" text-anchor="middle" style="white-space: pre;" direction="ltr" dominant-baseline="text-before-edge">list </text><text x="30.063987731933594" y="40" font-family="Virgil, Segoe UI Emoji" font-size="16px" fill="#000000" text-anchor="middle" style="white-space: pre;" direction="ltr" dominant-baseline="text-before-edge">action</text></g><g stroke-linecap="round"><g transform="translate(868.671875 256.7461386977665) rotate(0 29.081201335369656 13.463397665676155)"><path d="M0 0 C9.15 -0.36, 46.28 -7.34, 54.91 -2.17 C63.54 2.99, 52.31 25.47, 51.78 31 M0 0 C9.15 -0.36, 46.28 -7.34, 54.91 -2.17 C63.54 2.99, 52.31 25.47, 51.78 31" stroke="#000000" stroke-width="1" fill="none"></path></g><g transform="translate(868.671875 256.7461386977665) rotate(0 29.081201335369656 13.463397665676155)"><path d="M50.74 14.37 C51.03 19.03, 51.32 23.68, 51.78 31 M50.74 14.37 C51.05 19.35, 51.36 24.32, 51.78 31" stroke="#000000" stroke-width="1" fill="none"></path></g><g transform="translate(868.671875 256.7461386977665) rotate(0 29.081201335369656 13.463397665676155)"><path d="M61.67 17.59 C58.9 21.34, 56.13 25.1, 51.78 31 M61.67 17.59 C58.71 21.6, 55.75 25.61, 51.78 31" stroke="#000000" stroke-width="1" fill="none"></path></g></g><mask></mask><g stroke-linecap="round"><g transform="translate(844.0712567192168 351.8531072765699) rotate(0 -285.0160971096083 -9.801922091073806)"><path d="M0 0 C-51.99 -5.25, -216.96 -33.53, -311.97 -31.53 C-406.98 -29.52, -527.02 4.77, -570.03 12.03 M0 0 C-51.99 -5.25, -216.96 -33.53, -311.97 -31.53 C-406.98 -29.52, -527.02 4.77, -570.03 12.03" stroke="#000000" stroke-width="1" fill="none"></path></g><g transform="translate(844.0712567192168 351.8531072765699) rotate(0 -285.0160971096083 -9.801922091073806)"><path d="M-544.64 -3.94 C-554.53 2.28, -564.42 8.49, -570.03 12.03 M-544.64 -3.94 C-551.27 0.23, -557.91 4.4, -570.03 12.03" stroke="#000000" stroke-width="1" fill="none"></path></g><g transform="translate(844.0712567192168 351.8531072765699) rotate(0 -285.0160971096083 -9.801922091073806)"><path d="M-540.31 16.12 C-551.89 14.52, -563.46 12.93, -570.03 12.03 M-540.31 16.12 C-548.08 15.05, -555.84 13.98, -570.03 12.03" stroke="#000000" stroke-width="1" fill="none"></path></g></g><mask></mask><g transform="translate(516.9687579778848 305.50373825948765) rotate(4.2912475582029765 62.134971618652344 7.844105051800085)"><text x="0" y="0" font-family="Virgil, Segoe UI Emoji" font-size="12.550568082880147px" fill="#000000" text-anchor="start" style="white-space: pre;" direction="ltr" dominant-baseline="text-before-edge">passing over list ID</text></g><g transform="translate(389.5432340721816 227.7329351271438) rotate(353.1222003063495 112.5291519165039 7.79441565581277)"><text x="0" y="0" font-family="Virgil, Segoe UI Emoji" font-size="12.471065049300442px" fill="#000000" text-anchor="start" style="white-space: pre;" direction="ltr" dominant-baseline="text-before-edge">passing over parameters/preferences</text></g><g stroke-linecap="round" transform="translate(193.0390625 343.6953574477665) rotate(0 40 25)"><path d="M3.33 2.89 C3.33 2.89, 3.33 2.89, 3.33 2.89 M3.33 2.89 C3.33 2.89, 3.33 2.89, 3.33 2.89 M1.75 10.8 C4.2 7.98, 6.66 5.16, 8.97 2.5 M1.75 10.8 C3.95 8.27, 6.15 5.74, 8.97 2.5 M1.49 17.2 C6.51 11.42, 11.54 5.64, 14.61 2.1 M1.49 17.2 C5.64 12.42, 9.79 7.65, 14.61 2.1 M1.89 22.84 C6.77 17.23, 11.64 11.62, 20.26 1.71 M1.89 22.84 C8.81 14.88, 15.73 6.92, 20.26 1.71 M1.63 29.24 C7.98 21.93, 14.33 14.63, 25.24 2.07 M1.63 29.24 C9.97 19.64, 18.3 10.05, 25.24 2.07 M1.36 35.64 C11.56 23.91, 21.76 12.18, 30.89 1.67 M1.36 35.64 C7.78 28.26, 14.2 20.88, 30.89 1.67 M1.76 41.28 C13.4 27.89, 25.04 14.49, 35.87 2.03 M1.76 41.28 C11.12 30.51, 20.48 19.74, 35.87 2.03 M2.81 46.17 C15.13 31.99, 27.45 17.82, 41.52 1.64 M2.81 46.17 C14.05 33.24, 25.28 20.31, 41.52 1.64 M5.83 48.79 C21.11 31.21, 36.4 13.63, 46.5 2 M5.83 48.79 C18.85 33.81, 31.88 18.82, 46.5 2 M10.16 49.91 C25.78 31.94, 41.4 13.97, 52.15 1.61 M10.16 49.91 C20.09 38.48, 30.03 27.05, 52.15 1.61 M13.83 51.78 C28.85 34.5, 43.87 17.23, 57.13 1.97 M13.83 51.78 C29.31 33.98, 44.78 16.18, 57.13 1.97 M19.48 51.38 C29.82 39.48, 40.17 27.58, 62.12 2.33 M19.48 51.38 C35.41 33.05, 51.35 14.72, 62.12 2.33 M24.46 51.74 C38.84 35.2, 53.23 18.66, 68.42 1.18 M24.46 51.74 C41.11 32.59, 57.76 13.44, 68.42 1.18 M30.11 51.35 C43.53 35.91, 56.94 20.47, 72.75 2.29 M30.11 51.35 C46.97 31.95, 63.83 12.55, 72.75 2.29 M35.09 51.71 C51.39 32.96, 67.69 14.21, 77.08 3.41 M35.09 51.71 C43.68 41.83, 52.26 31.96, 77.08 3.41 M40.74 51.31 C53.38 36.77, 66.02 22.23, 80.1 6.03 M40.74 51.31 C51.46 38.98, 62.18 26.64, 80.1 6.03 M45.72 51.67 C56.33 39.47, 66.94 27.26, 81.15 10.92 M45.72 51.67 C59.2 36.17, 72.68 20.66, 81.15 10.92 M51.37 51.28 C58.71 42.83, 66.06 34.38, 81.55 16.56 M51.37 51.28 C61.98 39.07, 72.6 26.85, 81.55 16.56 M56.35 51.64 C62.07 45.06, 67.79 38.49, 81.28 22.96 M56.35 51.64 C63.33 43.61, 70.31 35.58, 81.28 22.96 M62 51.24 C66.16 46.46, 70.32 41.67, 81.68 28.6 M62 51.24 C67.06 45.42, 72.12 39.6, 81.68 28.6 M68.3 50.09 C71.5 46.41, 74.7 42.73, 81.42 35 M68.3 50.09 C70.95 47.04, 73.6 43.99, 81.42 35 M75.25 48.19 C76.72 46.5, 78.19 44.81, 82.47 39.89 M75.25 48.19 C78.06 44.96, 80.86 41.74, 82.47 39.89 M4.63 48.02 C4.63 48.02, 4.63 48.02, 4.63 48.02 M4.63 48.02 C4.63 48.02, 4.63 48.02, 4.63 48.02 M12.54 49.6 C8.62 46.19, 4.7 42.78, 1.22 39.76 M12.54 49.6 C10.01 47.4, 7.49 45.2, 1.22 39.76 M18.94 49.86 C13.73 45.33, 8.53 40.81, 0.82 34.11 M18.94 49.86 C12.68 44.42, 6.42 38.98, 0.82 34.11 M24.58 49.46 C19.56 45.1, 14.53 40.73, 1.18 29.13 M24.58 49.46 C19.57 45.11, 14.57 40.76, 1.18 29.13 M30.98 49.72 C23.7 43.4, 16.42 37.07, 0.79 23.48 M30.98 49.72 C21.97 41.9, 12.97 34.07, 0.79 23.48 M37.37 49.99 C25.32 39.51, 13.26 29.03, 1.15 18.5 M37.37 49.99 C26.83 40.82, 16.29 31.65, 1.15 18.5 M43.02 49.59 C29.04 37.44, 15.07 25.3, 0.75 12.85 M43.02 49.59 C28.77 37.2, 14.52 24.82, 0.75 12.85 M49.41 49.85 C36.26 38.41, 23.1 26.97, 1.11 7.86 M49.41 49.85 C31.98 34.7, 14.55 19.55, 1.11 7.86 M55.06 49.46 C43.88 39.74, 32.7 30.03, 2.98 4.19 M55.06 49.46 C39.72 36.13, 24.38 22.79, 2.98 4.19 M61.46 49.72 C41.41 32.29, 21.37 14.87, 4.85 0.52 M61.46 49.72 C49.77 39.56, 38.09 29.41, 4.85 0.52 M67.85 49.98 C53.12 37.17, 38.38 24.36, 8.99 -1.19 M67.85 49.98 C48.48 33.14, 29.11 16.3, 8.99 -1.19 M72.74 48.93 C52.33 31.18, 31.91 13.44, 13.87 -2.24 M72.74 48.93 C49.94 29.11, 27.14 9.29, 13.87 -2.24 M76.12 46.57 C54.15 27.47, 32.19 8.38, 20.27 -1.98 M76.12 46.57 C63.48 35.58, 50.85 24.6, 20.27 -1.98 M79.5 44.2 C60.07 27.32, 40.64 10.43, 26.67 -1.72 M79.5 44.2 C61.55 28.6, 43.61 13, 26.67 -1.72 M80.61 39.87 C66.23 27.37, 51.85 14.87, 32.31 -2.11 M80.61 39.87 C66.22 27.36, 51.83 14.85, 32.31 -2.11 M81.73 35.54 C65.26 21.23, 48.79 6.91, 38.71 -1.85 M81.73 35.54 C69.84 25.21, 57.96 14.88, 38.71 -1.85 M81.33 29.9 C73.34 22.95, 65.35 16.01, 44.35 -2.25 M81.33 29.9 C70.88 20.81, 60.42 11.72, 44.35 -2.25 M81.69 24.91 C72.22 16.68, 62.74 8.44, 50.75 -1.99 M81.69 24.91 C72.83 17.21, 63.97 9.5, 50.75 -1.99 M81.3 19.27 C74.07 12.99, 66.84 6.7, 57.15 -1.72 M81.3 19.27 C75.37 14.11, 69.44 8.96, 57.15 -1.72 M81.66 14.28 C75.99 9.35, 70.31 4.42, 62.79 -2.12 M81.66 14.28 C77.21 10.41, 72.76 6.55, 62.79 -2.12 M81.27 8.64 C77.68 5.52, 74.1 2.41, 69.19 -1.86 M81.27 8.64 C77.91 5.72, 74.55 2.8, 69.19 -1.86" stroke="#868e96" stroke-width="0.5" fill="none"></path><path d="M12.5 0 M12.5 0 C27.75 0, 42.99 0, 67.5 0 M12.5 0 C27.19 0, 41.88 0, 67.5 0 M67.5 0 C75.83 0, 80 4.17, 80 12.5 M67.5 0 C75.83 0, 80 4.17, 80 12.5 M80 12.5 C80 22.47, 80 32.44, 80 37.5 M80 12.5 C80 18.27, 80 24.04, 80 37.5 M80 37.5 C80 45.83, 75.83 50, 67.5 50 M80 37.5 C80 45.83, 75.83 50, 67.5 50 M67.5 50 C48.97 50, 30.45 50, 12.5 50 M67.5 50 C46.5 50, 25.5 50, 12.5 50 M12.5 50 C4.17 50, 0 45.83, 0 37.5 M12.5 50 C4.17 50, 0 45.83, 0 37.5 M0 37.5 C0 31.79, 0 26.07, 0 12.5 M0 37.5 C0 27.54, 0 17.59, 0 12.5 M0 12.5 C0 4.17, 4.17 0, 12.5 0 M0 12.5 C0 4.17, 4.17 0, 12.5 0" stroke="#000000" stroke-width="1" fill="none"></path></g><g transform="translate(198.97508239746094 348.6953574477665) rotate(0 34.06398010253906 20)"><text x="34.06398010253906" y="0" font-family="Virgil, Segoe UI Emoji" font-size="16px" fill="#000000" text-anchor="middle" style="white-space: pre;" direction="ltr" dominant-baseline="text-before-edge">save id </text><text x="34.06398010253906" y="20" font-family="Virgil, Segoe UI Emoji" font-size="16px" fill="#000000" text-anchor="middle" style="white-space: pre;" direction="ltr" dominant-baseline="text-before-edge">to store</text></g><g stroke-linecap="round" transform="translate(49.3671875 402.7617636977665) rotate(0 115.5 21)"><path d="M2.79 2.43 C2.79 2.43, 2.79 2.43, 2.79 2.43 M2.79 2.43 C2.79 2.43, 2.79 2.43, 2.79 2.43 M0.57 11.09 C2.12 9.3, 3.67 7.52, 7.78 2.79 M0.57 11.09 C2.35 9.03, 4.14 6.98, 7.78 2.79 M0.3 17.49 C4.03 13.2, 7.76 8.92, 13.42 2.4 M0.3 17.49 C3.88 13.38, 7.45 9.27, 13.42 2.4 M0.7 23.13 C5.7 17.37, 10.71 11.62, 18.41 2.76 M0.7 23.13 C6.45 16.52, 12.2 9.9, 18.41 2.76 M0.44 29.53 C5.25 23.99, 10.07 18.45, 24.06 2.36 M0.44 29.53 C6.25 22.85, 12.06 16.16, 24.06 2.36 M2.14 33.66 C11.97 22.36, 21.8 11.05, 29.04 2.72 M2.14 33.66 C9.66 25.01, 17.18 16.36, 29.04 2.72 M3.19 38.55 C13.63 26.54, 24.07 14.53, 34.69 2.33 M3.19 38.55 C15.73 24.13, 28.27 9.71, 34.69 2.33 M6.21 41.18 C17.43 28.28, 28.64 15.38, 39.67 2.69 M6.21 41.18 C17.34 28.38, 28.46 15.59, 39.67 2.69 M10.54 42.29 C24.44 26.3, 38.34 10.31, 45.32 2.29 M10.54 42.29 C20.95 30.32, 31.35 18.35, 45.32 2.29 M16.19 41.9 C28.52 27.71, 40.84 13.53, 50.3 2.65 M16.19 41.9 C24.02 32.89, 31.85 23.88, 50.3 2.65 M21.17 42.26 C34.74 26.65, 48.3 11.05, 55.95 2.26 M21.17 42.26 C31.48 30.4, 41.79 18.54, 55.95 2.26 M26.82 41.86 C34.06 33.53, 41.31 25.2, 60.93 2.62 M26.82 41.86 C38.54 28.37, 50.27 14.89, 60.93 2.62 M31.8 42.22 C39.89 32.93, 47.97 23.63, 66.58 2.22 M31.8 42.22 C39.22 33.69, 46.64 25.15, 66.58 2.22 M37.45 41.83 C49.54 27.91, 61.64 13.99, 71.56 2.58 M37.45 41.83 C50.22 27.14, 62.99 12.44, 71.56 2.58 M42.43 42.19 C53.04 29.99, 63.64 17.79, 77.21 2.19 M42.43 42.19 C51.14 32.18, 59.84 22.17, 77.21 2.19 M48.08 41.79 C56.71 31.86, 65.35 21.92, 82.19 2.55 M48.08 41.79 C56.52 32.08, 64.97 22.36, 82.19 2.55 M53.06 42.15 C64.69 28.77, 76.33 15.39, 87.84 2.15 M53.06 42.15 C62.94 30.8, 72.81 19.44, 87.84 2.15 M58.05 42.51 C67.49 31.65, 76.93 20.79, 92.82 2.51 M58.05 42.51 C65.56 33.88, 73.07 25.24, 92.82 2.51 M63.69 42.12 C73.99 30.27, 84.29 18.43, 98.47 2.12 M63.69 42.12 C76.48 27.41, 89.26 12.71, 98.47 2.12 M68.68 42.48 C81.6 27.62, 94.52 12.76, 103.45 2.48 M68.68 42.48 C81.15 28.14, 93.61 13.8, 103.45 2.48 M74.32 42.08 C85.02 29.78, 95.72 17.47, 108.44 2.84 M74.32 42.08 C82.22 33, 90.11 23.93, 108.44 2.84 M79.31 42.44 C86.73 33.91, 94.15 25.37, 114.08 2.44 M79.31 42.44 C89.08 31.21, 98.85 19.97, 114.08 2.44 M84.95 42.05 C97.2 27.97, 109.44 13.89, 119.07 2.8 M84.95 42.05 C97.97 27.08, 110.99 12.1, 119.07 2.8 M89.94 42.41 C98.85 32.17, 107.75 21.92, 124.71 2.41 M89.94 42.41 C97.44 33.79, 104.93 25.17, 124.71 2.41 M95.58 42.02 C107.6 28.19, 119.62 14.36, 129.7 2.77 M95.58 42.02 C102.45 34.12, 109.31 26.22, 129.7 2.77 M100.57 42.38 C109.5 32.11, 118.43 21.84, 135.34 2.38 M100.57 42.38 C111.74 29.53, 122.9 16.69, 135.34 2.38 M106.21 41.98 C115.19 31.66, 124.16 21.34, 140.33 2.74 M106.21 41.98 C114.74 32.17, 123.27 22.36, 140.33 2.74 M111.2 42.34 C124.1 27.5, 137 12.67, 145.97 2.34 M111.2 42.34 C124.52 27.02, 137.84 11.7, 145.97 2.34 M116.85 41.95 C123.95 33.77, 131.06 25.6, 150.96 2.7 M116.85 41.95 C129.26 27.66, 141.68 13.38, 150.96 2.7 M121.83 42.31 C130.62 32.19, 139.41 22.08, 156.6 2.31 M121.83 42.31 C132.72 29.78, 143.62 17.25, 156.6 2.31 M127.48 41.91 C139.55 28.02, 151.62 14.13, 161.59 2.67 M127.48 41.91 C139.62 27.94, 151.76 13.97, 161.59 2.67 M132.46 42.27 C144.8 28.08, 157.14 13.89, 167.23 2.27 M132.46 42.27 C141.16 32.26, 149.86 22.25, 167.23 2.27 M138.11 41.88 C145.41 33.47, 152.72 25.07, 172.22 2.63 M138.11 41.88 C148.86 29.51, 159.61 17.14, 172.22 2.63 M143.09 42.24 C151.02 33.12, 158.95 24, 177.86 2.24 M143.09 42.24 C152.1 31.87, 161.11 21.51, 177.86 2.24 M148.74 41.84 C160.73 28.04, 172.73 14.24, 182.85 2.6 M148.74 41.84 C159.23 29.77, 169.72 17.71, 182.85 2.6 M153.72 42.2 C161.43 33.34, 169.14 24.47, 188.49 2.2 M153.72 42.2 C161.77 32.95, 169.82 23.69, 188.49 2.2 M159.37 41.81 C168.83 30.92, 178.3 20.03, 193.48 2.56 M159.37 41.81 C168.76 31, 178.15 20.2, 193.48 2.56 M164.35 42.17 C177.69 26.82, 191.03 11.47, 199.12 2.17 M164.35 42.17 C177.75 26.75, 191.15 11.34, 199.12 2.17 M170 41.77 C181.98 27.99, 193.97 14.2, 204.11 2.53 M170 41.77 C181.51 28.52, 193.03 15.27, 204.11 2.53 M174.98 42.13 C187.51 27.72, 200.04 13.31, 209.75 2.13 M174.98 42.13 C187.7 27.5, 200.42 12.87, 209.75 2.13 M179.97 42.49 C189.74 31.25, 199.51 20.01, 214.74 2.49 M179.97 42.49 C190.05 30.9, 200.13 19.3, 214.74 2.49 M185.61 42.1 C196.3 29.8, 206.99 17.51, 221.7 0.59 M185.61 42.1 C198.02 27.82, 210.44 13.54, 221.7 0.59 M190.6 42.46 C198.5 33.37, 206.4 24.28, 226.03 1.71 M190.6 42.46 C201.38 30.06, 212.16 17.66, 226.03 1.71 M196.24 42.06 C207.44 29.19, 218.63 16.31, 229.7 3.57 M196.24 42.06 C206.87 29.84, 217.5 17.61, 229.7 3.57 M201.23 42.42 C209.93 32.42, 218.63 22.41, 232.06 6.95 M201.23 42.42 C208.3 34.29, 215.38 26.15, 232.06 6.95 M206.87 42.03 C215.19 32.46, 223.51 22.89, 233.12 11.84 M206.87 42.03 C212.42 35.65, 217.97 29.26, 233.12 11.84 M211.86 42.39 C216.31 37.27, 220.76 32.16, 232.85 18.24 M211.86 42.39 C217.96 35.37, 224.06 28.36, 232.85 18.24 M217.5 42 C221.78 37.08, 226.06 32.16, 232.59 24.64 M217.5 42 C223.18 35.46, 228.86 28.93, 232.59 24.64 M221.83 43.11 C224.92 39.56, 228.01 36.01, 231.67 31.79 M221.83 43.11 C225.67 38.7, 229.5 34.29, 231.67 31.79" stroke="#868e96" stroke-width="0.5" fill="none"></path><path d="M10.5 0 M10.5 0 C88.69 0, 166.88 0, 220.5 0 M10.5 0 C71.35 0, 132.21 0, 220.5 0 M220.5 0 C227.5 0, 231 3.5, 231 10.5 M220.5 0 C227.5 0, 231 3.5, 231 10.5 M231 10.5 C231 15.67, 231 20.85, 231 31.5 M231 10.5 C231 15.55, 231 20.6, 231 31.5 M231 31.5 C231 38.5, 227.5 42, 220.5 42 M231 31.5 C231 38.5, 227.5 42, 220.5 42 M220.5 42 C151.34 42, 82.18 42, 10.5 42 M220.5 42 C177.7 42, 134.9 42, 10.5 42 M10.5 42 C3.5 42, 0 38.5, 0 31.5 M10.5 42 C3.5 42, 0 38.5, 0 31.5 M0 31.5 C0 26.15, 0 20.79, 0 10.5 M0 31.5 C0 24.4, 0 17.3, 0 10.5 M0 10.5 C0 3.5, 3.5 0, 10.5 0 M0 10.5 C0 3.5, 3.5 0, 10.5 0" stroke="#000000" stroke-width="1" fill="none"></path></g><g transform="translate(66.65123748779297 413.7617636977665) rotate(0 98.21595001220703 10)"><text x="98.21595001220703" y="0" font-family="Virgil, Segoe UI Emoji" font-size="16px" fill="#000000" text-anchor="middle" style="white-space: pre;" direction="ltr" dominant-baseline="text-before-edge">request image generation</text></g><g stroke-linecap="round"><g transform="translate(287.3359375 422.9102011977665) rotate(0 238.607421875 0.072265625)"><path d="M0 0 C79.54 0.02, 397.68 0.12, 477.21 0.14 M0 0 C79.54 0.02, 397.68 0.12, 477.21 0.14" stroke="#000000" stroke-width="1" fill="none"></path></g><g transform="translate(287.3359375 422.9102011977665) rotate(0 238.607421875 0.072265625)"><path d="M449.02 10.4 C458.74 6.86, 468.45 3.33, 477.21 0.14 M449.02 10.4 C456.47 7.69, 463.92 4.98, 477.21 0.14" stroke="#000000" stroke-width="1" fill="none"></path></g><g transform="translate(287.3359375 422.9102011977665) rotate(0 238.607421875 0.072265625)"><path d="M449.03 -10.12 C458.74 -6.59, 468.45 -3.05, 477.21 0.14 M449.03 -10.12 C456.48 -7.41, 463.92 -4.7, 477.21 0.14" stroke="#000000" stroke-width="1" fill="none"></path></g></g><mask></mask><g transform="translate(449.49609375 402.2734824477665) rotate(0 72.28656005859375 9.026314172675939)"><text x="0" y="0" font-family="Virgil, Segoe UI Emoji" font-size="14.442102676281525px" fill="#000000" text-anchor="start" style="white-space: pre;" direction="ltr" dominant-baseline="text-before-edge">passing back list ID</text></g><g stroke-linecap="round" transform="translate(767.0546875 405.7539511977665) rotate(0 40 19.5)"><path d="M2.6 2.26 C2.6 2.26, 2.6 2.26, 2.6 2.26 M2.6 2.26 C2.6 2.26, 2.6 2.26, 2.6 2.26 M1.02 10.16 C4.16 6.55, 7.3 2.94, 9.55 0.35 M1.02 10.16 C3.64 7.15, 6.26 4.13, 9.55 0.35 M0.76 16.56 C4.23 12.57, 7.69 8.58, 15.19 -0.04 M0.76 16.56 C5.41 11.21, 10.07 5.85, 15.19 -0.04 M1.15 22.2 C8.66 13.57, 16.17 4.94, 20.18 0.32 M1.15 22.2 C6.62 15.92, 12.08 9.64, 20.18 0.32 M1.55 27.85 C10.61 17.43, 19.67 7, 25.82 -0.08 M1.55 27.85 C8.31 20.07, 15.08 12.28, 25.82 -0.08 M1.29 34.24 C7.88 26.66, 14.48 19.07, 30.81 0.28 M1.29 34.24 C9.22 25.12, 17.15 16, 30.81 0.28 M3.65 37.62 C14.32 25.36, 24.98 13.09, 36.45 -0.11 M3.65 37.62 C11.64 28.43, 19.63 19.24, 36.45 -0.11 M7.33 39.49 C18.22 26.97, 29.11 14.44, 41.44 0.25 M7.33 39.49 C15.1 30.55, 22.88 21.6, 41.44 0.25 M11.66 40.61 C23.56 26.92, 35.46 13.23, 47.08 -0.15 M11.66 40.61 C18.92 32.25, 26.18 23.9, 47.08 -0.15 M16.64 40.97 C28.08 27.82, 39.51 14.66, 52.07 0.21 M16.64 40.97 C28.67 27.13, 40.7 13.3, 52.07 0.21 M22.29 40.57 C31.94 29.47, 41.59 18.37, 57.71 -0.18 M22.29 40.57 C32.88 28.39, 43.47 16.21, 57.71 -0.18 M27.27 40.93 C39.72 26.62, 52.17 12.3, 62.7 0.18 M27.27 40.93 C37.05 29.69, 46.82 18.44, 62.7 0.18 M32.92 40.54 C44.52 27.19, 56.13 13.84, 68.34 -0.22 M32.92 40.54 C43.89 27.91, 54.87 15.28, 68.34 -0.22 M37.9 40.9 C48.1 29.16, 58.31 17.43, 72.02 1.65 M37.9 40.9 C48.43 28.79, 58.96 16.67, 72.02 1.65 M43.55 40.5 C54.09 28.38, 64.63 16.25, 76.35 2.77 M43.55 40.5 C55.71 26.51, 67.88 12.52, 76.35 2.77 M48.53 40.86 C59.12 28.68, 69.72 16.5, 80.02 4.64 M48.53 40.86 C55.06 33.35, 61.59 25.84, 80.02 4.64 M54.18 40.47 C64.67 28.4, 75.17 16.33, 80.42 10.28 M54.18 40.47 C61.09 32.52, 68 24.57, 80.42 10.28 M59.16 40.83 C63.58 35.75, 67.99 30.67, 80.16 16.68 M59.16 40.83 C66.3 32.62, 73.44 24.4, 80.16 16.68 M64.81 40.44 C69.88 34.6, 74.95 28.76, 79.9 23.08 M64.81 40.44 C69.59 34.93, 74.38 29.43, 79.9 23.08 M71.11 39.29 C74.27 35.64, 77.44 32, 80.29 28.72 M71.11 39.29 C74.54 35.34, 77.97 31.39, 80.29 28.72 M2.57 36.68 C2.57 36.68, 2.57 36.68, 2.57 36.68 M2.57 36.68 C2.57 36.68, 2.57 36.68, 2.57 36.68 M10.48 38.25 C7.66 35.8, 4.84 33.35, 2.17 31.03 M10.48 38.25 C7.38 35.56, 4.29 32.87, 2.17 31.03 M16.87 38.51 C13.92 35.94, 10.96 33.37, 2.53 26.05 M16.87 38.51 C11.56 33.9, 6.26 29.28, 2.53 26.05 M22.52 38.12 C16.97 33.3, 11.43 28.48, 2.14 20.4 M22.52 38.12 C16.39 32.79, 10.25 27.46, 2.14 20.4 M28.91 38.38 C20.26 30.85, 11.6 23.33, 1.74 14.76 M28.91 38.38 C21.54 31.97, 14.16 25.55, 1.74 14.76 M34.56 37.98 C21.14 26.32, 7.73 14.66, 0.6 8.46 M34.56 37.98 C23.69 28.53, 12.81 19.08, 0.6 8.46 M40.95 38.24 C31.31 29.86, 21.67 21.48, 1.71 4.13 M40.95 38.24 C27.69 26.72, 14.43 15.19, 1.71 4.13 M47.35 38.51 C36.91 29.43, 26.46 20.34, 3.58 0.45 M47.35 38.51 C34.63 27.44, 21.9 16.38, 3.58 0.45 M53 38.11 C35.18 22.63, 17.37 7.14, 7.71 -1.25 M53 38.11 C37.53 24.67, 22.07 11.23, 7.71 -1.25 M59.39 38.37 C44.68 25.59, 29.97 12.8, 11.85 -2.96 M59.39 38.37 C46.49 27.15, 33.58 15.93, 11.85 -2.96 M65.04 37.98 C46.61 21.96, 28.18 5.94, 18.24 -2.7 M65.04 37.98 C55.55 29.73, 46.07 21.49, 18.24 -2.7 M71.43 38.24 C53.17 22.37, 34.91 6.49, 24.64 -2.44 M71.43 38.24 C61.16 29.31, 50.89 20.38, 24.64 -2.44 M75.57 36.53 C66.24 28.43, 56.92 20.32, 30.29 -2.83 M75.57 36.53 C62.41 25.1, 49.26 13.66, 30.29 -2.83 M79.7 34.83 C69.34 25.82, 58.98 16.82, 36.68 -2.57 M79.7 34.83 C67.21 23.96, 54.71 13.1, 36.68 -2.57 M81.57 31.15 C73.13 23.82, 64.7 16.48, 42.33 -2.96 M81.57 31.15 C68.92 20.16, 56.28 9.16, 42.33 -2.96 M81.93 26.16 C72.06 17.58, 62.19 9, 48.72 -2.7 M81.93 26.16 C70.69 16.39, 59.45 6.62, 48.72 -2.7 M81.54 20.52 C72.74 12.88, 63.95 5.23, 55.12 -2.44 M81.54 20.52 C74.57 14.47, 67.6 8.41, 55.12 -2.44 M81.9 15.53 C74.03 8.7, 66.16 1.86, 60.77 -2.84 M81.9 15.53 C77.33 11.57, 72.76 7.6, 60.77 -2.84 M80.75 9.24 C76.69 5.71, 72.64 2.19, 67.16 -2.57 M80.75 9.24 C77.63 6.53, 74.52 3.82, 67.16 -2.57" stroke="#868e96" stroke-width="0.5" fill="none"></path><path d="M9.75 0 M9.75 0 C31.24 0, 52.73 0, 70.25 0 M9.75 0 C26.34 0, 42.92 0, 70.25 0 M70.25 0 C76.75 0, 80 3.25, 80 9.75 M70.25 0 C76.75 0, 80 3.25, 80 9.75 M80 9.75 C80 13.96, 80 18.17, 80 29.25 M80 9.75 C80 16.9, 80 24.05, 80 29.25 M80 29.25 C80 35.75, 76.75 39, 70.25 39 M80 29.25 C80 35.75, 76.75 39, 70.25 39 M70.25 39 C55.01 39, 39.76 39, 9.75 39 M70.25 39 C47.18 39, 24.12 39, 9.75 39 M9.75 39 C3.25 39, 0 35.75, 0 29.25 M9.75 39 C3.25 39, 0 35.75, 0 29.25 M0 29.25 C0 24.82, 0 20.39, 0 9.75 M0 29.25 C0 23.21, 0 17.17, 0 9.75 M0 9.75 C0 3.25, 3.25 0, 9.75 0 M0 9.75 C0 3.25, 3.25 0, 9.75 0" stroke="#000000" stroke-width="1" fill="none"></path></g><g transform="translate(782.3027038574219 415.2539511977665) rotate(0 24.751983642578125 10)"><text x="24.751983642578125" y="0" font-family="Virgil, Segoe UI Emoji" font-size="16px" fill="#000000" text-anchor="middle" style="white-space: pre;" direction="ltr" dominant-baseline="text-before-edge">router</text></g><g stroke-linecap="round"><g transform="translate(854.22265625 426.3984824477665) rotate(0 20.504158036103036 17.90884533282164)"><path d="M0 0 C5.2 0.55, 24.34 -2.76, 31.17 3.28 C38.01 9.32, 39.37 30.75, 41.01 36.24 M0 0 C5.2 0.55, 24.34 -2.76, 31.17 3.28 C38.01 9.32, 39.37 30.75, 41.01 36.24" stroke="#000000" stroke-width="1" fill="none"></path></g><g transform="translate(854.22265625 426.3984824477665) rotate(0 20.504158036103036 17.90884533282164)"><path d="M32.28 21.42 C34.81 25.71, 37.33 30, 41.01 36.24 M32.28 21.42 C35.31 26.56, 38.34 31.7, 41.01 36.24" stroke="#000000" stroke-width="1" fill="none"></path></g><g transform="translate(854.22265625 426.3984824477665) rotate(0 20.504158036103036 17.90884533282164)"><path d="M43.85 19.28 C43.03 24.18, 42.21 29.09, 41.01 36.24 M43.85 19.28 C42.86 25.16, 41.88 31.05, 41.01 36.24" stroke="#000000" stroke-width="1" fill="none"></path></g></g><mask></mask><g stroke-linecap="round" transform="translate(775.2578125 453.9922324477665) rotate(0 99.73828125 70)"><path d="M7.52 67.49 C7.52 67.49, 7.52 67.49, 7.52 67.49 M7.52 67.49 C7.52 67.49, 7.52 67.49, 7.52 67.49 M7.26 73.89 C11.72 68.76, 16.17 63.63, 18.41 61.06 M7.26 73.89 C11.1 69.47, 14.94 65.05, 18.41 61.06 M10.28 76.51 C16.49 69.37, 22.7 62.22, 32.58 50.85 M10.28 76.51 C17.26 68.48, 24.24 60.44, 32.58 50.85 M12.64 79.89 C22.42 68.64, 32.2 57.39, 46.1 41.4 M12.64 79.89 C21.79 69.37, 30.93 58.85, 46.1 41.4 M15.66 82.51 C26.72 69.79, 37.78 57.07, 60.27 31.19 M15.66 82.51 C26.99 69.48, 38.32 56.45, 60.27 31.19 M19.33 84.38 C39.8 60.84, 60.27 37.29, 73.79 21.74 M19.33 84.38 C38.85 61.94, 58.36 39.5, 73.79 21.74 M22.35 87.01 C45.15 60.78, 67.95 34.56, 85.99 13.8 M22.35 87.01 C40.6 66.02, 58.84 45.03, 85.99 13.8 M25.37 89.63 C43.74 68.5, 62.12 47.36, 96.88 7.37 M25.37 89.63 C50.98 60.18, 76.58 30.73, 96.88 7.37 M29.05 91.5 C54.15 62.62, 79.26 33.74, 102.53 6.97 M29.05 91.5 C46.08 71.91, 63.11 52.32, 102.53 6.97 M32.07 94.13 C48.54 75.17, 65.01 56.22, 107.51 7.33 M32.07 94.13 C56.95 65.5, 81.83 36.88, 107.51 7.33 M35.74 95.99 C55.13 73.69, 74.52 51.39, 111.19 9.2 M35.74 95.99 C62.76 64.91, 89.78 33.83, 111.19 9.2 M38.76 98.62 C63.1 70.62, 87.44 42.62, 114.86 11.07 M38.76 98.62 C63.81 69.8, 88.86 40.99, 114.86 11.07 M42.43 100.49 C71.83 66.68, 101.22 32.86, 117.88 13.7 M42.43 100.49 C63.8 75.92, 85.16 51.34, 117.88 13.7 M45.45 103.11 C68.09 77.07, 90.73 51.03, 121.56 15.57 M45.45 103.11 C69.07 75.95, 92.68 48.79, 121.56 15.57 M49.13 104.98 C75.64 74.48, 102.15 43.98, 124.58 18.19 M49.13 104.98 C69.69 81.33, 90.25 57.67, 124.58 18.19 M52.15 107.61 C72.24 84.49, 92.34 61.37, 128.25 20.06 M52.15 107.61 C69.32 87.86, 86.49 68.1, 128.25 20.06 M55.82 109.48 C84.57 76.41, 113.31 43.35, 131.27 22.68 M55.82 109.48 C81.52 79.91, 107.22 50.35, 131.27 22.68 M58.84 112.1 C74.59 93.98, 90.35 75.86, 134.29 25.31 M58.84 112.1 C83.45 83.8, 108.05 55.49, 134.29 25.31 M62.52 113.97 C80.87 92.85, 99.23 71.73, 137.96 27.18 M62.52 113.97 C88.92 83.59, 115.33 53.21, 137.96 27.18 M65.53 116.59 C87.99 90.77, 110.44 64.94, 140.98 29.8 M65.53 116.59 C85.24 93.92, 104.95 71.25, 140.98 29.8 M69.21 118.46 C93.9 90.07, 118.58 61.67, 144 32.43 M69.21 118.46 C92.53 91.63, 115.85 64.81, 144 32.43 M72.23 121.09 C100.36 88.73, 128.48 56.38, 147.68 34.3 M72.23 121.09 C100.8 88.22, 129.38 55.35, 147.68 34.3 M75.9 122.96 C102.79 92.03, 129.67 61.11, 150.69 36.92 M75.9 122.96 C97.27 98.38, 118.63 73.81, 150.69 36.92 M78.92 125.58 C98.04 103.59, 117.16 81.59, 154.37 38.79 M78.92 125.58 C95.89 106.06, 112.86 86.54, 154.37 38.79 M82.6 127.45 C103.25 103.69, 123.9 79.93, 157.39 41.41 M82.6 127.45 C103.5 103.41, 124.39 79.37, 157.39 41.41 M85.62 130.08 C103.19 109.86, 120.77 89.64, 160.41 44.04 M85.62 130.08 C103.9 109.04, 122.18 88.01, 160.41 44.04 M89.29 131.95 C115.58 101.7, 141.87 71.46, 164.08 45.91 M89.29 131.95 C115.44 101.87, 141.58 71.79, 164.08 45.91 M92.97 133.81 C121.85 100.59, 150.73 67.36, 167.1 48.53 M92.97 133.81 C113.76 109.89, 134.56 85.97, 167.1 48.53 M96.64 135.68 C117.47 111.72, 138.3 87.76, 170.12 51.16 M96.64 135.68 C118.76 110.24, 140.87 84.8, 170.12 51.16 M100.97 136.8 C120.33 114.52, 139.7 92.25, 173.79 53.03 M100.97 136.8 C120.97 113.79, 140.97 90.78, 173.79 53.03 M106.61 136.4 C127.42 112.47, 148.22 88.54, 176.81 55.65 M106.61 136.4 C133.78 105.16, 160.94 73.91, 176.81 55.65 M118.16 129.22 C142.16 101.61, 166.15 74.01, 179.83 58.27 M118.16 129.22 C140.79 103.19, 163.41 77.16, 179.83 58.27 M131.02 120.52 C143.68 105.96, 156.35 91.39, 183.51 60.14 M131.02 120.52 C142 107.89, 152.97 95.27, 183.51 60.14 M143.88 111.82 C159.28 94.12, 174.67 76.41, 186.53 62.77 M143.88 111.82 C160.76 92.41, 177.63 73, 186.53 62.77 M157.4 102.37 C166.9 91.44, 176.41 80.5, 189.54 65.39 M157.4 102.37 C164.4 94.32, 171.4 86.27, 189.54 65.39 M170.26 93.68 C178.29 84.44, 186.32 75.2, 192.56 68.02 M170.26 93.68 C179.13 83.47, 188.01 73.26, 192.56 68.02" stroke="#ced4da" stroke-width="0.5" fill="none"></path><path d="M125 17.75 M125 17.75 C138.05 27.11, 151.1 36.48, 174.48 53.25 M125 17.75 C135.46 25.26, 145.93 32.77, 174.48 53.25 M174.48 53.25 C199.48 71, 199.48 71, 174.48 88.75 M174.48 53.25 C199.48 71, 199.48 71, 174.48 88.75 M174.48 88.75 C161.24 97.71, 148.01 106.67, 125 122.25 M174.48 88.75 C154.73 102.12, 134.99 115.49, 125 122.25 M125 122.25 C100 140, 100 140, 75 122.25 M125 122.25 C100 140, 100 140, 75 122.25 M75 122.25 C60.47 112.52, 45.94 102.78, 25 88.75 M75 122.25 C59.28 111.72, 43.55 101.18, 25 88.75 M25 88.75 C0 71, 0 71, 25 53.25 M25 88.75 C0 71, 0 71, 25 53.25 M25 53.25 C38.68 43.54, 52.35 33.83, 75 17.75 M25 53.25 C38.72 43.51, 52.45 33.76, 75 17.75 M75 17.75 C100 0, 100 0, 125 17.75 M75 17.75 C100 0, 100 0, 125 17.75" stroke="#000000" stroke-width="1" fill="none"></path></g><g transform="translate(845.0629653930664 493.9922324477665) rotate(0 30.063987731933594 30)"><text x="30.063987731933594" y="0" font-family="Virgil, Segoe UI Emoji" font-size="16px" fill="#000000" text-anchor="middle" style="white-space: pre;" direction="ltr" dominant-baseline="text-before-edge">create </text><text x="30.063987731933594" y="20" font-family="Virgil, Segoe UI Emoji" font-size="16px" fill="#000000" text-anchor="middle" style="white-space: pre;" direction="ltr" dominant-baseline="text-before-edge">image </text><text x="30.063987731933594" y="40" font-family="Virgil, Segoe UI Emoji" font-size="16px" fill="#000000" text-anchor="middle" style="white-space: pre;" direction="ltr" dominant-baseline="text-before-edge">action</text></g><g stroke-linecap="round"><g transform="translate(966.28515625 504.7699809549404) rotate(0 96.80264985821623 -15.148101702786334)"><path d="M0 0 C14.47 -5.35, 65.18 -32.59, 86.83 -32.08 C108.49 -31.57, 112.14 3.26, 129.93 3.05 C147.73 2.84, 182.99 -27.28, 193.61 -33.34 M0 0 C14.47 -5.35, 65.18 -32.59, 86.83 -32.08 C108.49 -31.57, 112.14 3.26, 129.93 3.05 C147.73 2.84, 182.99 -27.28, 193.61 -33.34" stroke="#000000" stroke-width="1" fill="none"></path></g><g transform="translate(966.28515625 504.7699809549404) rotate(0 96.80264985821623 -15.148101702786334)"><path d="M176.34 -8.81 C180.56 -14.81, 184.78 -20.81, 193.61 -33.34 M176.34 -8.81 C182.85 -18.07, 189.37 -27.33, 193.61 -33.34" stroke="#000000" stroke-width="1" fill="none"></path></g><g transform="translate(966.28515625 504.7699809549404) rotate(0 96.80264985821623 -15.148101702786334)"><path d="M164.61 -25.65 C171.7 -27.53, 178.78 -29.41, 193.61 -33.34 M164.61 -25.65 C175.55 -28.55, 186.49 -31.46, 193.61 -33.34" stroke="#000000" stroke-width="1" fill="none"></path></g></g><mask></mask><g stroke-linecap="round" transform="translate(1074.0234375 184.3242636977665) rotate(0 187.599609375 150.60351562499994)"><path d="M32.76 65.58 C32.76 65.58, 32.76 65.58, 32.76 65.58 M32.76 65.58 C32.76 65.58, 32.76 65.58, 32.76 65.58 M20.03 86.32 C34.55 69.62, 49.07 52.92, 60.05 40.28 M20.03 86.32 C32.49 71.98, 44.95 57.65, 60.05 40.28 M15.18 98 C28.85 82.28, 42.51 66.56, 71.6 33.09 M15.18 98 C35.89 74.17, 56.61 50.34, 71.6 33.09 M10.98 108.92 C37.99 77.85, 65 46.79, 82.49 26.66 M10.98 108.92 C30.35 86.65, 49.71 64.37, 82.49 26.66 M7.44 119.09 C34.12 88.4, 60.8 57.71, 92.07 21.74 M7.44 119.09 C35.88 86.38, 64.31 53.67, 92.07 21.74 M3.9 129.27 C30.74 98.39, 57.58 67.52, 96.4 22.85 M3.9 129.27 C39.31 88.53, 74.71 47.8, 96.4 22.85 M2.32 137.17 C24.44 111.73, 46.56 86.28, 107.29 16.42 M2.32 137.17 C23.64 112.65, 44.95 88.13, 107.29 16.42 M3.38 142.06 C41.65 98.03, 79.93 54, 114.91 13.76 M3.38 142.06 C39.78 100.18, 76.19 58.3, 114.91 13.76 M0.49 151.48 C36.2 110.4, 71.91 69.32, 121.2 12.61 M0.49 151.48 C34.98 111.8, 69.48 72.12, 121.2 12.61 M0.88 157.12 C39.49 112.71, 78.1 68.3, 128.16 10.71 M0.88 157.12 C49.58 101.1, 98.28 45.08, 128.16 10.71 M1.28 162.76 C29.56 130.23, 57.83 97.71, 135.12 8.8 M1.28 162.76 C48.54 108.39, 95.81 54.02, 135.12 8.8 M2.33 167.65 C52.46 109.98, 102.6 52.31, 141.41 7.65 M2.33 167.65 C48.73 114.27, 95.13 60.9, 141.41 7.65 M2.72 173.29 C56.79 111.1, 110.86 48.9, 148.37 5.75 M2.72 173.29 C50.19 118.69, 97.66 64.08, 148.37 5.75 M3.77 178.18 C38.17 138.62, 72.56 99.06, 154.67 4.6 M3.77 178.18 C58.6 115.11, 113.43 52.03, 154.67 4.6 M4.83 183.07 C45.92 135.79, 87.02 88.51, 160.97 3.45 M4.83 183.07 C63.57 115.49, 122.31 47.92, 160.97 3.45 M7.19 186.45 C46.01 141.79, 84.83 97.13, 167.27 2.3 M7.19 186.45 C64.39 120.64, 121.6 54.84, 167.27 2.3 M8.9 190.58 C66.48 124.35, 124.06 58.11, 174.22 0.4 M8.9 190.58 C46.56 147.25, 84.23 103.92, 174.22 0.4 M9.29 196.23 C54.23 144.53, 99.17 92.83, 179.21 0.76 M9.29 196.23 C43.71 156.63, 78.14 117.03, 179.21 0.76 M11 200.36 C73.74 128.19, 136.47 56.02, 184.85 0.36 M11 200.36 C55.51 149.15, 100.03 97.94, 184.85 0.36 M12.7 204.49 C79.32 127.86, 145.93 51.23, 189.18 1.48 M12.7 204.49 C63.48 146.09, 114.25 87.68, 189.18 1.48 M15.07 207.87 C52.47 164.84, 89.88 121.81, 194.17 1.84 M15.07 207.87 C84.52 127.98, 153.97 48.09, 194.17 1.84 M17.43 211.25 C88.3 129.72, 159.17 48.19, 199.81 1.44 M17.43 211.25 C54.42 168.7, 91.41 126.15, 199.81 1.44 M18.48 216.14 C69.27 157.71, 120.06 99.28, 204.14 2.56 M18.48 216.14 C55.87 173.12, 93.27 130.1, 204.14 2.56 M20.84 219.52 C82.67 148.39, 144.51 77.26, 209.13 2.92 M20.84 219.52 C65.97 167.6, 111.1 115.69, 209.13 2.92 M23.2 222.9 C82.34 154.87, 141.48 86.84, 214.12 3.28 M23.2 222.9 C66.54 173.04, 109.88 123.19, 214.12 3.28 M25.57 226.28 C93.24 148.43, 160.91 70.58, 218.45 4.39 M25.57 226.28 C81.81 161.58, 138.05 96.88, 218.45 4.39 M27.93 229.66 C95.51 151.92, 163.08 74.18, 223.44 4.75 M27.93 229.66 C76.05 174.31, 124.16 118.96, 223.44 4.75 M30.29 233.04 C76.84 179.49, 123.39 125.94, 229.74 3.6 M30.29 233.04 C100.77 151.96, 171.24 70.89, 229.74 3.6 M33.31 235.66 C110.17 147.24, 187.03 58.83, 234.07 4.72 M33.31 235.66 C111.98 145.17, 190.64 54.67, 234.07 4.72 M35.67 239.04 C91.8 174.48, 147.92 109.92, 238.4 5.83 M35.67 239.04 C80.56 187.4, 125.45 135.76, 238.4 5.83 M38.69 241.66 C99.18 172.08, 159.67 102.5, 242.73 6.95 M38.69 241.66 C89.48 183.24, 140.27 124.81, 242.73 6.95 M41.06 245.04 C83.4 196.34, 125.73 147.63, 247.06 8.06 M41.06 245.04 C122.17 151.73, 203.28 58.42, 247.06 8.06 M44.08 247.67 C113.52 167.78, 182.96 87.9, 251.39 9.18 M44.08 247.67 C117.38 163.34, 190.68 79.02, 251.39 9.18 M47.09 250.29 C102.83 186.17, 158.57 122.06, 255.72 10.29 M47.09 250.29 C124.26 161.52, 201.43 72.75, 255.72 10.29 M50.11 252.91 C96.08 200.04, 142.04 147.16, 258.74 12.92 M50.11 252.91 C111.37 182.44, 172.63 111.97, 258.74 12.92 M53.13 255.54 C123.02 175.14, 192.91 94.74, 263.07 14.03 M53.13 255.54 C126.8 170.79, 200.47 86.04, 263.07 14.03 M56.15 258.16 C108.36 198.1, 160.57 138.04, 266.75 15.9 M56.15 258.16 C100.06 207.66, 143.96 157.15, 266.75 15.9 M59.17 260.79 C143.37 163.92, 227.58 67.05, 271.08 17.02 M59.17 260.79 C131.11 178.03, 203.05 95.27, 271.08 17.02 M62.19 263.41 C144.61 168.59, 227.04 73.77, 275.41 18.13 M62.19 263.41 C123.82 192.51, 185.45 121.61, 275.41 18.13 M65.86 265.28 C125.27 196.95, 184.67 128.61, 279.08 20 M65.86 265.28 C117.01 206.45, 168.15 147.61, 279.08 20 M68.88 267.91 C149.85 174.77, 230.81 81.63, 282.76 21.87 M68.88 267.91 C128.31 199.54, 187.74 131.18, 282.76 21.87 M72.56 269.77 C140.58 191.52, 208.61 113.26, 286.43 23.74 M72.56 269.77 C149.08 181.74, 225.61 93.71, 286.43 23.74 M76.23 271.64 C127.47 212.7, 178.71 153.76, 290.11 25.61 M76.23 271.64 C155.14 180.87, 234.06 90.09, 290.11 25.61 M79.25 274.27 C139.65 204.78, 200.06 135.3, 294.44 26.72 M79.25 274.27 C143.95 199.84, 208.65 125.41, 294.44 26.72 M82.93 276.14 C159.88 187.61, 236.84 99.08, 297.46 29.35 M82.93 276.14 C149 200.13, 215.07 124.12, 297.46 29.35 M86.6 278.01 C141.27 215.11, 195.95 152.22, 301.13 31.22 M86.6 278.01 C146.1 209.56, 205.6 141.11, 301.13 31.22 M90.28 279.88 C175.79 181.5, 261.31 83.13, 304.81 33.09 M90.28 279.88 C152.95 207.78, 215.62 135.68, 304.81 33.09 M93.95 281.75 C169.3 195.07, 244.65 108.39, 307.83 35.71 M93.95 281.75 C179.15 183.74, 264.34 85.73, 307.83 35.71 M98.28 282.86 C182.56 185.91, 266.83 88.97, 311.5 37.58 M98.28 282.86 C155.89 216.59, 213.49 150.33, 311.5 37.58 M101.96 284.73 C146.23 233.8, 190.51 182.87, 314.52 40.21 M101.96 284.73 C181.81 192.87, 261.66 101.01, 314.52 40.21 M105.63 286.6 C160.32 223.69, 215.01 160.78, 317.54 42.83 M105.63 286.6 C156.99 227.51, 208.36 168.43, 317.54 42.83 M109.31 288.47 C168.95 219.85, 228.6 151.24, 321.21 44.7 M109.31 288.47 C156.55 234.12, 203.79 179.78, 321.21 44.7 M112.98 290.34 C170.01 224.73, 227.04 159.13, 324.23 47.32 M112.98 290.34 C189.17 202.69, 265.37 115.04, 324.23 47.32 M117.31 291.45 C191.63 205.97, 265.94 120.48, 327.25 49.95 M117.31 291.45 C191.9 205.65, 266.5 119.84, 327.25 49.95 M121.64 292.57 C202.44 199.63, 283.23 106.68, 330.27 52.57 M121.64 292.57 C169.31 237.73, 216.98 182.9, 330.27 52.57 M125.97 293.68 C173.93 238.52, 221.89 183.35, 333.29 55.2 M125.97 293.68 C185.99 224.64, 246.01 155.6, 333.29 55.2 M129.65 295.55 C199.85 214.79, 270.06 134.03, 336.31 57.82 M129.65 295.55 C171.15 247.81, 212.65 200.07, 336.31 57.82 M134.64 295.91 C184.11 239, 233.59 182.08, 338.67 61.2 M134.64 295.91 C204.78 215.22, 274.92 134.53, 338.67 61.2 M138.97 297.03 C205.97 219.95, 272.98 142.87, 341.69 63.82 M138.97 297.03 C196.59 230.75, 254.2 164.46, 341.69 63.82 M143.3 298.14 C211.54 219.64, 279.78 141.14, 344.05 67.2 M143.3 298.14 C211.16 220.08, 279.02 142.01, 344.05 67.2 M147.63 299.26 C214.49 222.35, 281.34 145.44, 346.41 70.58 M147.63 299.26 C194.71 245.09, 241.8 190.93, 346.41 70.58 M152.62 299.62 C231.23 209.18, 309.85 118.75, 349.43 73.21 M152.62 299.62 C210.41 233.13, 268.21 166.64, 349.43 73.21 M156.95 300.73 C197.32 254.29, 237.69 207.84, 351.8 76.58 M156.95 300.73 C209.24 240.57, 261.54 180.41, 351.8 76.58 M161.93 301.09 C223.51 230.26, 285.09 159.42, 354.16 79.96 M161.93 301.09 C226.06 227.32, 290.2 153.55, 354.16 79.96 M166.92 301.45 C236.44 221.48, 305.95 141.51, 356.52 83.34 M166.92 301.45 C231.4 227.27, 295.89 153.09, 356.52 83.34 M171.25 302.57 C232.3 232.34, 293.35 162.11, 358.88 86.72 M171.25 302.57 C243.01 220.01, 314.78 137.46, 358.88 86.72 M176.24 302.93 C233.69 236.84, 291.13 170.76, 360.59 90.85 M176.24 302.93 C225.05 246.77, 273.87 190.62, 360.59 90.85 M181.23 303.29 C228.6 248.79, 275.98 194.29, 362.95 94.23 M181.23 303.29 C229.62 247.62, 278.01 191.95, 362.95 94.23 M188.18 301.38 C243.54 237.71, 298.89 174.03, 365.32 97.61 M188.18 301.38 C224.82 259.24, 261.46 217.09, 365.32 97.61 M193.17 301.74 C244.61 242.56, 296.06 183.38, 367.02 101.75 M193.17 301.74 C230.15 259.2, 267.14 216.65, 367.02 101.75 M198.81 301.35 C251.81 240.38, 304.81 179.41, 368.07 106.63 M198.81 301.35 C263.5 226.93, 328.19 152.51, 368.07 106.63 M203.14 302.46 C240.33 259.68, 277.52 216.9, 369.12 111.52 M203.14 302.46 C261.41 235.43, 319.68 168.4, 369.12 111.52 M208.78 302.07 C246.17 259.06, 283.56 216.05, 370.83 115.66 M208.78 302.07 C266.86 235.27, 324.93 168.46, 370.83 115.66 M215.74 300.17 C272.68 234.67, 329.62 169.17, 373.19 119.04 M215.74 300.17 C249.12 261.76, 282.51 223.36, 373.19 119.04 M222.04 299.02 C261.01 254.19, 299.98 209.36, 374.24 123.92 M222.04 299.02 C275.98 236.96, 329.92 174.91, 374.24 123.92 M228.34 297.87 C264.7 256.04, 301.05 214.22, 374.64 129.57 M228.34 297.87 C261.69 259.5, 295.04 221.13, 374.64 129.57 M232.01 299.74 C282.76 241.36, 333.5 182.99, 375.69 134.46 M232.01 299.74 C281 243.39, 329.98 187.03, 375.69 134.46 M238.31 298.59 C286.27 243.42, 334.23 188.25, 376.08 140.1 M238.31 298.59 C270.39 261.68, 302.47 224.78, 376.08 140.1 M245.27 296.68 C292.23 242.66, 339.19 188.64, 375.82 146.5 M245.27 296.68 C289.68 245.59, 334.09 194.5, 375.82 146.5 M252.22 294.78 C295.27 245.26, 338.31 195.74, 376.22 152.14 M252.22 294.78 C297.12 243.13, 342.02 191.48, 376.22 152.14 M259.18 292.88 C292.65 254.37, 326.13 215.86, 375.96 158.54 M259.18 292.88 C297.23 249.1, 335.29 205.32, 375.96 158.54 M269.41 287.2 C296.95 255.52, 324.48 223.85, 377.01 163.43 M269.41 287.2 C307.37 243.54, 345.32 199.88, 377.01 163.43 M278.34 283.03 C299.12 259.12, 319.9 235.22, 373.47 173.6 M278.34 283.03 C309.1 247.64, 339.86 212.26, 373.47 173.6 M283.98 282.64 C311.06 251.48, 338.14 220.33, 371.89 181.5 M283.98 282.64 C305.38 258.02, 326.78 233.4, 371.89 181.5 M294.87 276.2 C311.5 257.07, 328.13 237.94, 372.94 186.39 M294.87 276.2 C319.03 248.41, 343.19 220.61, 372.94 186.39 M305.76 269.77 C322.35 250.69, 338.94 231.61, 369.4 196.56 M305.76 269.77 C323.22 249.69, 340.67 229.61, 369.4 196.56 M325.18 253.53 C331.67 246.07, 338.15 238.61, 357.33 216.55 M325.18 253.53 C335.24 241.96, 345.29 230.4, 357.33 216.55" stroke="#ced4da" stroke-width="0.5" fill="none"></path><path d="M375.2 150.6 C375.2 154.36, 375.02 158.12, 374.67 161.86 C374.33 165.6, 373.8 169.34, 373.1 173.05 C372.41 176.76, 371.54 180.46, 370.5 184.12 C369.46 187.77, 368.24 191.41, 366.86 194.99 C365.49 198.58, 363.94 202.13, 362.23 205.63 C360.52 209.12, 358.65 212.57, 356.62 215.95 C354.59 219.33, 352.4 222.66, 350.07 225.91 C347.73 229.15, 345.23 232.34, 342.6 235.44 C339.97 238.54, 337.18 241.57, 334.27 244.5 C331.36 247.44, 328.3 250.29, 325.12 253.04 C321.94 255.79, 318.63 258.45, 315.2 261 C311.77 263.56, 308.22 266.01, 304.57 268.35 C300.91 270.69, 297.14 272.92, 293.28 275.04 C289.42 277.15, 285.45 279.15, 281.4 281.03 C277.35 282.91, 273.21 284.66, 269 286.29 C264.79 287.92, 260.49 289.43, 256.14 290.8 C251.79 292.17, 247.36 293.41, 242.9 294.52 C238.43 295.62, 233.9 296.6, 229.34 297.43 C224.79 298.27, 220.18 298.97, 215.56 299.52 C210.94 300.08, 206.28 300.51, 201.62 300.79 C196.96 301.07, 192.27 301.21, 187.6 301.21 C182.93 301.21, 178.24 301.07, 173.58 300.79 C168.92 300.51, 164.26 300.08, 159.64 299.52 C155.02 298.97, 150.41 298.27, 145.85 297.43 C141.3 296.6, 136.77 295.62, 132.3 294.52 C127.84 293.41, 123.41 292.17, 119.06 290.8 C114.71 289.43, 110.41 287.92, 106.2 286.29 C101.99 284.66, 97.85 282.91, 93.8 281.03 C89.75 279.15, 85.78 277.15, 81.92 275.04 C78.06 272.92, 74.29 270.69, 70.63 268.35 C66.98 266.01, 63.43 263.56, 60 261 C56.57 258.45, 53.26 255.79, 50.08 253.04 C46.9 250.29, 43.84 247.44, 40.93 244.5 C38.01 241.57, 35.23 238.54, 32.6 235.44 C29.97 232.34, 27.47 229.15, 25.13 225.91 C22.8 222.66, 20.61 219.33, 18.58 215.95 C16.55 212.57, 14.68 209.12, 12.97 205.63 C11.26 202.13, 9.71 198.58, 8.33 194.99 C6.96 191.41, 5.74 187.77, 4.7 184.12 C3.66 180.46, 2.79 176.76, 2.1 173.05 C1.4 169.34, 0.87 165.6, 0.52 161.86 C0.18 158.12, 0 154.36, 0 150.6 C0 146.85, 0.18 143.09, 0.52 139.35 C0.87 135.61, 1.4 131.87, 2.1 128.16 C2.79 124.45, 3.66 120.75, 4.7 117.09 C5.74 113.43, 6.96 109.8, 8.33 106.21 C9.71 102.63, 11.26 99.07, 12.97 95.58 C14.68 92.09, 16.55 88.64, 18.58 85.26 C20.61 81.88, 22.8 78.55, 25.13 75.3 C27.47 72.05, 29.97 68.87, 32.6 65.77 C35.23 62.67, 38.01 59.64, 40.93 56.7 C43.84 53.77, 46.9 50.92, 50.08 48.17 C53.26 45.42, 56.57 42.76, 60 40.2 C63.43 37.65, 66.98 35.2, 70.63 32.86 C74.29 30.52, 78.06 28.28, 81.92 26.17 C85.78 24.06, 89.75 22.05, 93.8 20.18 C97.85 18.3, 101.99 16.54, 106.2 14.91 C110.41 13.29, 114.71 11.78, 119.06 10.41 C123.41 9.04, 127.84 7.8, 132.3 6.69 C136.77 5.59, 141.3 4.61, 145.85 3.78 C150.41 2.94, 155.02 2.24, 159.64 1.68 C164.26 1.12, 168.92 0.7, 173.58 0.42 C178.24 0.14, 182.93 0, 187.6 0 C192.27 0, 196.96 0.14, 201.62 0.42 C206.28 0.7, 210.94 1.12, 215.56 1.68 C220.18 2.24, 224.79 2.94, 229.34 3.78 C233.9 4.61, 238.43 5.59, 242.9 6.69 C247.36 7.8, 251.79 9.04, 256.14 10.41 C260.49 11.78, 264.79 13.29, 269 14.91 C273.21 16.54, 277.35 18.3, 281.4 20.18 C285.45 22.05, 289.42 24.06, 293.28 26.17 C297.14 28.28, 300.91 30.52, 304.57 32.86 C308.22 35.2, 311.77 37.65, 315.2 40.2 C318.63 42.76, 321.94 45.42, 325.12 48.17 C328.3 50.92, 331.36 53.77, 334.27 56.7 C337.18 59.64, 339.97 62.67, 342.6 65.77 C345.23 68.87, 347.73 72.05, 350.07 75.3 C352.4 78.55, 354.59 81.88, 356.62 85.26 C358.65 88.64, 360.52 92.09, 362.23 95.58 C363.94 99.07, 365.49 102.63, 366.86 106.21 C368.24 109.8, 369.46 113.43, 370.5 117.09 C371.54 120.75, 372.41 124.45, 373.1 128.16 C373.8 131.87, 374.33 135.61, 374.67 139.35 C375.02 143.09, 375.2 146.85, 375.2 150.6" stroke="#000000" stroke-width="1" fill="none"></path></g><g transform="translate(1112.0088078558445 224.58207619776653) rotate(0 148.6417236328125 112.14453124999989)"><text x="148.6417236328125" y="0" font-family="Virgil, Segoe UI Emoji" font-size="17.943124999999984px" fill="#000000" text-anchor="middle" style="white-space: pre;" direction="ltr" dominant-baseline="text-before-edge">- find list by ID</text><text x="148.6417236328125" y="22.42890624999998" font-family="Virgil, Segoe UI Emoji" font-size="17.943124999999984px" fill="#000000" text-anchor="middle" style="white-space: pre;" direction="ltr" dominant-baseline="text-before-edge">- generate custom prompt </text><text x="148.6417236328125" y="44.85781249999996" font-family="Virgil, Segoe UI Emoji" font-size="17.943124999999984px" fill="#000000" text-anchor="middle" style="white-space: pre;" direction="ltr" dominant-baseline="text-before-edge">with user's list</text><text x="148.6417236328125" y="67.28671874999993" font-family="Virgil, Segoe UI Emoji" font-size="17.943124999999984px" fill="#000000" text-anchor="middle" style="white-space: pre;" direction="ltr" dominant-baseline="text-before-edge">- pass to OpenAPI through fetch</text><text x="148.6417236328125" y="89.71562499999992" font-family="Virgil, Segoe UI Emoji" font-size="17.943124999999984px" fill="#000000" text-anchor="middle" style="white-space: pre;" direction="ltr" dominant-baseline="text-before-edge">- get image URL results</text><text x="148.6417236328125" y="112.1445312499999" font-family="Virgil, Segoe UI Emoji" font-size="17.943124999999984px" fill="#000000" text-anchor="middle" style="white-space: pre;" direction="ltr" dominant-baseline="text-before-edge">- save images to AWS and</text><text x="148.6417236328125" y="134.57343749999987" font-family="Virgil, Segoe UI Emoji" font-size="17.943124999999984px" fill="#000000" text-anchor="middle" style="white-space: pre;" direction="ltr" dominant-baseline="text-before-edge">keys to MongoDB</text><text x="148.6417236328125" y="157.00234374999985" font-family="Virgil, Segoe UI Emoji" font-size="17.943124999999984px" fill="#000000" text-anchor="middle" style="white-space: pre;" direction="ltr" dominant-baseline="text-before-edge">- generate signedURLs from AWS</text><text x="148.6417236328125" y="179.43124999999984" font-family="Virgil, Segoe UI Emoji" font-size="17.943124999999984px" fill="#000000" text-anchor="middle" style="white-space: pre;" direction="ltr" dominant-baseline="text-before-edge"></text><text x="148.6417236328125" y="201.86015624999982" font-family="Virgil, Segoe UI Emoji" font-size="17.943124999999984px" fill="#000000" text-anchor="middle" style="white-space: pre;" direction="ltr" dominant-baseline="text-before-edge"></text></g><g stroke-linecap="round"><g transform="translate(1281.26953125 406.3203574477665) rotate(0 -199.34765625 96.11634697706603)"><path d="M0 0 C-30.15 29.34, -114.46 145.17, -180.91 176.06 C-247.36 206.95, -362.4 183.81, -398.7 185.36 M0 0 C-30.15 29.34, -114.46 145.17, -180.91 176.06 C-247.36 206.95, -362.4 183.81, -398.7 185.36" stroke="#000000" stroke-width="1" fill="none"></path></g><g transform="translate(1281.26953125 406.3203574477665) rotate(0 -199.34765625 96.11634697706603)"><path d="M-369.92 176.87 C-379.59 179.72, -389.26 182.57, -398.7 185.36 M-369.92 176.87 C-379.53 179.7, -389.14 182.54, -398.7 185.36" stroke="#000000" stroke-width="1" fill="none"></path></g><g transform="translate(1281.26953125 406.3203574477665) rotate(0 -199.34765625 96.11634697706603)"><path d="M-371.2 197.35 C-380.44 193.32, -389.68 189.29, -398.7 185.36 M-371.2 197.35 C-380.38 193.34, -389.57 189.34, -398.7 185.36" stroke="#000000" stroke-width="1" fill="none"></path></g></g><mask></mask><g stroke-linecap="round"><g transform="translate(861.296875 587.8550664905201) rotate(0 -282.51171875 -54.435069708805656)"><path d="M0 0 C-94.17 -18.15, -470.85 -90.73, -565.02 -108.87 M0 0 C-94.17 -18.15, -470.85 -90.73, -565.02 -108.87" stroke="#000000" stroke-width="1" fill="none"></path></g><g transform="translate(861.296875 587.8550664905201) rotate(0 -282.51171875 -54.435069708805656)"><path d="M-535.4 -113.61 C-545.35 -112.02, -555.29 -110.43, -565.02 -108.87 M-535.4 -113.61 C-546.45 -111.84, -557.5 -110.07, -565.02 -108.87" stroke="#000000" stroke-width="1" fill="none"></path></g><g transform="translate(861.296875 587.8550664905201) rotate(0 -282.51171875 -54.435069708805656)"><path d="M-539.28 -93.46 C-547.92 -98.63, -556.57 -103.81, -565.02 -108.87 M-539.28 -93.46 C-548.89 -99.21, -558.49 -104.96, -565.02 -108.87" stroke="#000000" stroke-width="1" fill="none"></path></g></g><mask></mask><g stroke-linecap="round" transform="translate(216.2734375 450.8516074477665) rotate(0 39.5 25)"><path d="M3.33 2.89 C3.33 2.89, 3.33 2.89, 3.33 2.89 M3.33 2.89 C3.33 2.89, 3.33 2.89, 3.33 2.89 M1.75 10.8 C4.45 7.7, 7.14 4.6, 8.97 2.5 M1.75 10.8 C4.63 7.49, 7.51 4.18, 8.97 2.5 M1.49 17.2 C4.63 13.59, 7.76 9.99, 14.61 2.1 M1.49 17.2 C5.83 12.21, 10.16 7.23, 14.61 2.1 M1.89 22.84 C5.96 18.16, 10.03 13.48, 20.26 1.71 M1.89 22.84 C7.89 15.93, 13.9 9.02, 20.26 1.71 M1.63 29.24 C10.75 18.75, 19.87 8.25, 25.24 2.07 M1.63 29.24 C8.91 20.86, 16.19 12.49, 25.24 2.07 M1.36 35.64 C11.68 23.77, 21.99 11.91, 30.89 1.67 M1.36 35.64 C9.92 25.8, 18.47 15.96, 30.89 1.67 M1.76 41.28 C8.82 33.15, 15.89 25.02, 35.87 2.03 M1.76 41.28 C8.79 33.19, 15.82 25.11, 35.87 2.03 M2.81 46.17 C16.89 29.97, 30.98 13.77, 41.52 1.64 M2.81 46.17 C11.8 35.82, 20.79 25.48, 41.52 1.64 M5.83 48.79 C16.39 36.64, 26.95 24.49, 46.5 2 M5.83 48.79 C14.21 39.15, 22.58 29.52, 46.5 2 M10.16 49.91 C26.91 30.64, 43.66 11.37, 52.15 1.61 M10.16 49.91 C24.8 33.06, 39.44 16.22, 52.15 1.61 M13.83 51.78 C25.89 37.91, 37.94 24.04, 57.13 1.97 M13.83 51.78 C26.33 37.4, 38.82 23.03, 57.13 1.97 M19.48 51.38 C28.65 40.83, 37.82 30.28, 62.12 2.33 M19.48 51.38 C35.74 32.67, 52 13.96, 62.12 2.33 M24.46 51.74 C36.53 37.86, 48.59 23.98, 68.42 1.18 M24.46 51.74 C39.1 34.9, 53.74 18.07, 68.42 1.18 M30.11 51.35 C42.86 36.68, 55.61 22.01, 72.75 2.29 M30.11 51.35 C43.8 35.6, 57.49 19.85, 72.75 2.29 M35.09 51.71 C44.83 40.5, 54.57 29.3, 76.43 4.16 M35.09 51.71 C44.05 41.4, 53.01 31.1, 76.43 4.16 M40.74 51.31 C54.84 35.09, 68.94 18.86, 79.44 6.78 M40.74 51.31 C52.62 37.65, 64.49 23.98, 79.44 6.78 M45.72 51.67 C53.59 42.63, 61.45 33.58, 80.5 11.67 M45.72 51.67 C56.7 39.04, 67.68 26.42, 80.5 11.67 M51.37 51.28 C58.78 42.75, 66.2 34.22, 80.89 17.32 M51.37 51.28 C61.01 40.18, 70.65 29.09, 80.89 17.32 M56.35 51.64 C63.32 43.63, 70.28 35.62, 80.63 23.71 M56.35 51.64 C61.31 45.93, 66.28 40.23, 80.63 23.71 M62 51.24 C66.3 46.3, 70.6 41.35, 81.02 29.36 M62 51.24 C68.02 44.32, 74.04 37.39, 81.02 29.36 M67.64 50.85 C71.6 46.3, 75.56 41.74, 79.45 37.26 M67.64 50.85 C71.84 46.02, 76.04 41.19, 79.45 37.26 M4.63 48.02 C4.63 48.02, 4.63 48.02, 4.63 48.02 M4.63 48.02 C4.63 48.02, 4.63 48.02, 4.63 48.02 M12.54 49.6 C9.54 46.99, 6.53 44.38, 1.22 39.76 M12.54 49.6 C9.82 47.23, 7.1 44.87, 1.22 39.76 M18.94 49.86 C14.6 46.09, 10.26 42.32, 0.82 34.11 M18.94 49.86 C13.63 45.25, 8.33 40.64, 0.82 34.11 M24.58 49.46 C18.8 44.44, 13.01 39.41, 1.18 29.13 M24.58 49.46 C19.23 44.81, 13.88 40.16, 1.18 29.13 M30.98 49.72 C23.61 43.32, 16.24 36.92, 0.79 23.48 M30.98 49.72 C19.1 39.4, 7.22 29.07, 0.79 23.48 M37.37 49.99 C29.1 42.79, 20.83 35.6, 1.15 18.5 M37.37 49.99 C26.92 40.9, 16.46 31.81, 1.15 18.5 M43.02 49.59 C31.66 39.72, 20.3 29.84, 0.75 12.85 M43.02 49.59 C30.62 38.82, 18.23 28.05, 0.75 12.85 M49.41 49.85 C38.19 40.09, 26.96 30.33, 1.11 7.86 M49.41 49.85 C35.57 37.82, 21.72 25.78, 1.11 7.86 M55.06 49.46 C43.95 39.81, 32.85 30.15, 2.98 4.19 M55.06 49.46 C35.79 32.71, 16.52 15.96, 2.98 4.19 M61.46 49.72 C46.76 36.94, 32.06 24.17, 4.85 0.52 M61.46 49.72 C45.16 35.55, 28.86 21.39, 4.85 0.52 M67.1 49.32 C55.28 39.06, 43.47 28.79, 8.99 -1.19 M67.1 49.32 C46.72 31.61, 26.34 13.9, 8.99 -1.19 M71.99 48.27 C49.51 28.74, 27.04 9.2, 13.87 -2.24 M71.99 48.27 C57.12 35.35, 42.26 22.43, 13.87 -2.24 M76.12 46.57 C59.84 32.41, 43.55 18.26, 20.27 -1.98 M76.12 46.57 C64.38 36.36, 52.63 26.15, 20.27 -1.98 M78.74 43.55 C64.84 31.46, 50.94 19.38, 26.67 -1.72 M78.74 43.55 C60.4 27.6, 42.06 11.66, 26.67 -1.72 M79.86 39.22 C62.87 24.45, 45.89 9.69, 32.31 -2.11 M79.86 39.22 C66.9 27.95, 53.94 16.68, 32.31 -2.11 M80.97 34.89 C71.24 26.42, 61.5 17.96, 38.71 -1.85 M80.97 34.89 C70.94 26.16, 60.9 17.44, 38.71 -1.85 M81.33 29.9 C73.72 23.28, 66.11 16.66, 44.35 -2.25 M81.33 29.9 C69.89 19.95, 58.44 10, 44.35 -2.25 M80.94 24.26 C69.37 14.2, 57.8 4.14, 50.75 -1.99 M80.94 24.26 C69.76 14.54, 58.58 4.82, 50.75 -1.99 M81.3 19.27 C74.78 13.6, 68.27 7.94, 57.15 -1.72 M81.3 19.27 C75.46 14.2, 69.63 9.12, 57.15 -1.72 M80.91 13.63 C75.31 8.76, 69.72 3.9, 62.79 -2.12 M80.91 13.63 C75.33 8.78, 69.75 3.93, 62.79 -2.12 M80.51 7.98 C76.79 4.75, 73.07 1.52, 68.44 -2.51 M80.51 7.98 C77.64 5.49, 74.76 2.99, 68.44 -2.51" stroke="#ced4da" stroke-width="0.5" fill="none"></path><path d="M12.5 0 M12.5 0 C32.3 0, 52.1 0, 66.5 0 M12.5 0 C23.63 0, 34.77 0, 66.5 0 M66.5 0 C74.83 0, 79 4.17, 79 12.5 M66.5 0 C74.83 0, 79 4.17, 79 12.5 M79 12.5 C79 22.11, 79 31.72, 79 37.5 M79 12.5 C79 20.22, 79 27.94, 79 37.5 M79 37.5 C79 45.83, 74.83 50, 66.5 50 M79 37.5 C79 45.83, 74.83 50, 66.5 50 M66.5 50 C47.2 50, 27.9 50, 12.5 50 M66.5 50 C52.45 50, 38.41 50, 12.5 50 M12.5 50 C4.17 50, 0 45.83, 0 37.5 M12.5 50 C4.17 50, 0 45.83, 0 37.5 M0 37.5 C0 31.65, 0 25.79, 0 12.5 M0 37.5 C0 30.89, 0 24.29, 0 12.5 M0 12.5 C0 4.17, 4.17 0, 12.5 0 M0 12.5 C0 4.17, 4.17 0, 12.5 0" stroke="#000000" stroke-width="1" fill="none"></path></g><g transform="translate(223.03746032714844 455.8516074477665) rotate(0 32.73597717285156 20)"><text x="32.73597717285156" y="0" font-family="Virgil, Segoe UI Emoji" font-size="16px" fill="#000000" text-anchor="middle" style="white-space: pre;" direction="ltr" dominant-baseline="text-before-edge">present </text><text x="32.73597717285156" y="20" font-family="Virgil, Segoe UI Emoji" font-size="16px" fill="#000000" text-anchor="middle" style="white-space: pre;" direction="ltr" dominant-baseline="text-before-edge">images</text></g><g transform="translate(429.56066952574815 512.9234002279584) rotate(11.53617738112568 137.84494018554688 9.284134791615827)"><text x="137.84494018554688" y="0" font-family="Virgil, Segoe UI Emoji" font-size="14.854615666585323px" fill="#000000" text-anchor="middle" style="white-space: pre;" direction="ltr" dominant-baseline="text-before-edge">passing images with their signed URLs</text></g><g stroke-linecap="round" transform="translate(42.76171875 515.9141074477666) rotate(0 135.5 66.5)"><path d="M7.86 8.16 C7.86 8.16, 7.86 8.16, 7.86 8.16 M7.86 8.16 C7.86 8.16, 7.86 8.16, 7.86 8.16 M3.66 19.09 C7.4 14.78, 11.14 10.48, 18.1 2.48 M3.66 19.09 C6.76 15.53, 9.85 11.97, 18.1 2.48 M2.75 26.24 C7.66 20.59, 12.57 14.94, 25.05 0.58 M2.75 26.24 C8.82 19.25, 14.89 12.27, 25.05 0.58 M2.48 32.64 C11.5 22.26, 20.52 11.89, 30.7 0.18 M2.48 32.64 C11.97 21.72, 21.46 10.8, 30.7 0.18 M2.88 38.28 C9.95 30.15, 17.01 22.02, 34.37 2.05 M2.88 38.28 C10.63 29.36, 18.38 20.44, 34.37 2.05 M2.62 44.68 C15.8 29.52, 28.97 14.36, 39.36 2.41 M2.62 44.68 C11.11 34.9, 19.61 25.13, 39.36 2.41 M2.36 51.07 C12.3 39.64, 22.24 28.21, 45 2.02 M2.36 51.07 C16.59 34.7, 30.82 18.33, 45 2.02 M2.75 56.72 C15.62 41.92, 28.48 27.12, 49.99 2.38 M2.75 56.72 C18.35 38.78, 33.94 20.83, 49.99 2.38 M2.49 63.11 C20.74 42.12, 38.98 21.13, 55.63 1.98 M2.49 63.11 C21.25 41.53, 40.02 19.94, 55.63 1.98 M2.23 69.51 C24.62 43.75, 47.02 17.99, 60.62 2.34 M2.23 69.51 C14.67 55.2, 27.12 40.88, 60.62 2.34 M2.62 75.16 C23.55 51.08, 44.48 27.01, 66.26 1.95 M2.62 75.16 C16.67 58.99, 30.72 42.83, 66.26 1.95 M2.36 81.55 C25.91 54.47, 49.45 27.38, 71.25 2.31 M2.36 81.55 C23.6 57.12, 44.84 32.69, 71.25 2.31 M2.1 87.95 C27.51 58.72, 52.92 29.49, 76.89 1.91 M2.1 87.95 C20.93 66.29, 39.76 44.63, 76.89 1.91 M2.49 93.59 C20.2 73.23, 37.9 52.86, 81.88 2.27 M2.49 93.59 C33.66 57.75, 64.82 21.9, 81.88 2.27 M0.92 101.5 C18.49 81.29, 36.06 61.08, 87.52 1.88 M0.92 101.5 C23.4 75.64, 45.88 49.79, 87.52 1.88 M1.32 107.14 C22.27 83.04, 43.23 58.93, 92.51 2.24 M1.32 107.14 C27.85 76.62, 54.38 46.1, 92.51 2.24 M3.02 111.28 C33.61 76.09, 64.2 40.9, 98.15 1.85 M3.02 111.28 C27.38 83.26, 51.73 55.24, 98.15 1.85 M4.07 116.17 C42.83 71.58, 81.6 26.99, 103.14 2.21 M4.07 116.17 C41.43 73.19, 78.79 30.21, 103.14 2.21 M5.12 121.06 C44.07 76.26, 83.01 31.46, 108.78 1.81 M5.12 121.06 C41.56 79.14, 77.99 37.23, 108.78 1.81 M7.49 124.43 C35.45 92.26, 63.42 60.09, 113.77 2.17 M7.49 124.43 C36.52 91.04, 65.55 57.64, 113.77 2.17 M10.51 127.06 C34.65 99.28, 58.8 71.5, 119.41 1.78 M10.51 127.06 C38.25 95.14, 65.99 63.23, 119.41 1.78 M13.52 129.68 C38.76 100.65, 63.99 71.62, 124.4 2.14 M13.52 129.68 C52.27 85.11, 91.02 40.53, 124.4 2.14 M17.2 131.55 C61.52 80.57, 105.84 29.58, 130.04 1.74 M17.2 131.55 C59.28 83.14, 101.37 34.73, 130.04 1.74 M20.87 133.42 C65.8 81.75, 110.72 30.07, 135.03 2.1 M20.87 133.42 C46.56 103.87, 72.25 74.32, 135.03 2.1 M25.86 133.78 C71.6 81.17, 117.33 28.56, 140.67 1.71 M25.86 133.78 C61.66 92.6, 97.45 51.43, 140.67 1.71 M30.85 134.14 C64.86 95.01, 98.87 55.89, 145.66 2.07 M30.85 134.14 C61.53 98.85, 92.21 63.56, 145.66 2.07 M35.18 135.26 C61.12 105.41, 87.06 75.57, 150.65 2.43 M35.18 135.26 C78.51 85.41, 121.85 35.56, 150.65 2.43 M40.17 135.62 C86.35 82.48, 132.54 29.35, 156.29 2.03 M40.17 135.62 C74.05 96.64, 107.93 57.67, 156.29 2.03 M45.81 135.22 C72.87 104.09, 99.94 72.95, 161.28 2.39 M45.81 135.22 C76.52 99.89, 107.24 64.55, 161.28 2.39 M50.8 135.58 C95.68 83.95, 140.56 32.32, 166.92 2 M50.8 135.58 C81.33 100.46, 111.86 65.33, 166.92 2 M56.44 135.19 C87.25 99.74, 118.07 64.29, 171.91 2.36 M56.44 135.19 C100.88 84.06, 145.32 32.94, 171.91 2.36 M61.43 135.55 C93.66 98.47, 125.89 61.39, 177.55 1.96 M61.43 135.55 C107.11 82.99, 152.8 30.44, 177.55 1.96 M66.41 135.91 C105.65 90.77, 144.88 45.64, 182.54 2.32 M66.41 135.91 C104.88 91.65, 143.36 47.39, 182.54 2.32 M72.06 135.51 C108.35 93.76, 144.65 52.01, 188.18 1.93 M72.06 135.51 C100.42 102.88, 128.79 70.24, 188.18 1.93 M77.04 135.87 C116.51 90.47, 155.98 45.07, 193.17 2.29 M77.04 135.87 C100.63 108.74, 124.21 81.61, 193.17 2.29 M82.69 135.48 C112.84 100.79, 143 66.09, 198.81 1.9 M82.69 135.48 C108.83 105.41, 134.97 75.33, 198.81 1.9 M87.67 135.84 C127.36 90.18, 167.05 44.52, 203.8 2.26 M87.67 135.84 C122.11 96.23, 156.54 56.62, 203.8 2.26 M93.32 135.44 C129.75 93.53, 166.18 51.62, 209.44 1.86 M93.32 135.44 C127.44 96.19, 161.57 56.93, 209.44 1.86 M98.3 135.8 C131.89 97.17, 165.47 58.54, 214.43 2.22 M98.3 135.8 C122.26 108.25, 146.21 80.69, 214.43 2.22 M103.95 135.41 C149.93 82.51, 195.91 29.62, 220.07 1.83 M103.95 135.41 C133.79 101.08, 163.63 66.75, 220.07 1.83 M108.93 135.77 C144.25 95.14, 179.57 54.51, 225.06 2.19 M108.93 135.77 C146.73 92.29, 184.53 48.8, 225.06 2.19 M114.58 135.38 C144.1 101.41, 173.63 67.44, 230.7 1.79 M114.58 135.38 C145.85 99.4, 177.13 63.42, 230.7 1.79 M119.56 135.74 C164.31 84.26, 209.06 32.78, 235.69 2.15 M119.56 135.74 C159.72 89.54, 199.88 43.34, 235.69 2.15 M125.21 135.34 C167.37 86.84, 209.53 38.33, 241.33 1.76 M125.21 135.34 C164.01 90.7, 202.82 46.06, 241.33 1.76 M130.19 135.7 C166.16 94.33, 202.13 52.95, 246.97 1.36 M130.19 135.7 C171.91 87.72, 213.62 39.73, 246.97 1.36 M135.84 135.31 C161.64 105.63, 187.43 75.95, 251.3 2.48 M135.84 135.31 C159.3 108.31, 182.77 81.31, 251.3 2.48 M140.82 135.67 C177.79 93.14, 214.76 50.61, 254.98 4.35 M140.82 135.67 C180.56 89.96, 220.29 44.25, 254.98 4.35 M146.47 135.27 C176.13 101.15, 205.79 67.03, 259.31 5.46 M146.47 135.27 C177.69 99.35, 208.92 63.43, 259.31 5.46 M151.45 135.63 C180.42 102.31, 209.39 68.98, 262.33 8.09 M151.45 135.63 C185.31 96.68, 219.17 57.73, 262.33 8.09 M157.1 135.24 C193.63 93.21, 230.16 51.18, 266 9.96 M157.1 135.24 C190.12 97.25, 223.15 59.26, 266 9.96 M162.08 135.6 C185.87 108.24, 209.65 80.87, 267.71 14.09 M162.08 135.6 C195.3 97.39, 228.51 59.19, 267.71 14.09 M167.73 135.2 C190.3 109.24, 212.87 83.27, 269.42 18.22 M167.73 135.2 C196.18 102.47, 224.64 69.74, 269.42 18.22 M172.71 135.56 C201.75 102.16, 230.79 68.76, 270.47 23.11 M172.71 135.56 C198.03 106.44, 223.34 77.32, 270.47 23.11 M178.36 135.17 C209.5 99.35, 240.63 63.53, 272.83 26.49 M178.36 135.17 C211.61 96.92, 244.86 58.67, 272.83 26.49 M183.34 135.53 C204.3 111.42, 225.26 87.31, 272.57 32.89 M183.34 135.53 C212 102.56, 240.67 69.59, 272.57 32.89 M188.33 135.89 C221.52 97.7, 254.72 59.52, 272.96 38.53 M188.33 135.89 C214.87 105.36, 241.4 74.84, 272.96 38.53 M193.97 135.49 C223.36 101.69, 252.75 67.88, 272.7 44.93 M193.97 135.49 C216.16 109.97, 238.35 84.45, 272.7 44.93 M198.96 135.85 C226.4 104.29, 253.84 72.72, 273.1 50.57 M198.96 135.85 C221.72 109.67, 244.48 83.49, 273.1 50.57 M204.6 135.46 C226.67 110.07, 248.74 84.69, 272.83 56.97 M204.6 135.46 C219.6 118.2, 234.6 100.95, 272.83 56.97 M209.59 135.82 C231.89 110.17, 254.18 84.52, 273.23 62.61 M209.59 135.82 C230.15 112.17, 250.7 88.52, 273.23 62.61 M215.23 135.42 C231 117.29, 246.76 99.16, 272.97 69.01 M215.23 135.42 C227.52 121.29, 239.81 107.16, 272.97 69.01 M220.22 135.78 C233.31 120.73, 246.4 105.67, 273.36 74.65 M220.22 135.78 C236.21 117.39, 252.21 98.99, 273.36 74.65 M225.86 135.39 C239.39 119.83, 252.91 104.27, 273.1 81.05 M225.86 135.39 C237.04 122.53, 248.22 109.67, 273.1 81.05 M230.85 135.75 C243.57 121.12, 256.28 106.5, 273.5 86.69 M230.85 135.75 C240.59 124.55, 250.33 113.34, 273.5 86.69 M236.49 135.36 C244 126.72, 251.5 118.09, 273.23 93.09 M236.49 135.36 C246.26 124.12, 256.02 112.89, 273.23 93.09 M241.48 135.72 C252.72 122.79, 263.96 109.86, 271.66 101 M241.48 135.72 C248.77 127.33, 256.06 118.95, 271.66 101 M248.44 133.81 C256.11 124.98, 263.79 116.15, 270.74 108.15 M248.44 133.81 C256.76 124.24, 265.08 114.67, 270.74 108.15 M254.74 132.66 C258.69 128.11, 262.65 123.55, 269.83 115.3 M254.74 132.66 C259.64 127.03, 264.54 121.39, 269.83 115.3" stroke="#868e96" stroke-width="0.5" fill="none"></path><path d="M32 0 M32 0 C114.79 0, 197.58 0, 239 0 M32 0 C79.53 0, 127.06 0, 239 0 M239 0 C260.33 0, 271 10.67, 271 32 M239 0 C260.33 0, 271 10.67, 271 32 M271 32 C271 51.85, 271 71.69, 271 101 M271 32 C271 50.7, 271 69.4, 271 101 M271 101 C271 122.33, 260.33 133, 239 133 M271 101 C271 122.33, 260.33 133, 239 133 M239 133 C173.73 133, 108.46 133, 32 133 M239 133 C182.88 133, 126.77 133, 32 133 M32 133 C10.67 133, 0 122.33, 0 101 M32 133 C10.67 133, 0 122.33, 0 101 M0 101 C0 74.48, 0 47.95, 0 32 M0 101 C0 77.73, 0 54.47, 0 32 M0 32 C0 10.67, 10.67 0, 32 0 M0 32 C0 10.67, 10.67 0, 32 0" stroke="#000000" stroke-width="1" fill="none"></path></g><g transform="translate(47.89378356933594 562.4141074477666) rotate(0 130.36793518066406 20)"><text x="130.36793518066406" y="0" font-family="Virgil, Segoe UI Emoji" font-size="16px" fill="#000000" text-anchor="middle" style="white-space: pre;" direction="ltr" dominant-baseline="text-before-edge">User gets to select an image to</text><text x="130.36793518066406" y="20" font-family="Virgil, Segoe UI Emoji" font-size="16px" fill="#000000" text-anchor="middle" style="white-space: pre;" direction="ltr" dominant-baseline="text-before-edge">save to their profile/collection!</text></g><g transform="translate(21.32750701904297 305.9375449477665) rotate(0 8.359992980957031 10)"><text x="8.359992980957031" y="0" font-family="Virgil, Segoe UI Emoji" font-size="16px" fill="#000000" text-anchor="middle" style="white-space: pre;" direction="ltr" dominant-baseline="text-before-edge">1. </text></g><g transform="translate(17.33075714111328 410.9609824477665) rotate(0 7.887992858886719 10)"><text x="7.887992858886719" y="0" font-family="Virgil, Segoe UI Emoji" font-size="16px" fill="#000000" text-anchor="middle" style="white-space: pre;" direction="ltr" dominant-baseline="text-before-edge">2.</text></g><g transform="translate(15.981101989746094 563.4453574477666) rotate(0 7.639991760253906 10)"><text x="7.639991760253906" y="0" font-family="Virgil, Segoe UI Emoji" font-size="16px" fill="#000000" text-anchor="middle" style="white-space: pre;" direction="ltr" dominant-baseline="text-before-edge">3.</text></g><g transform="translate(78.96108527645936 10) rotate(0 416.3108520507813 29.073030213110084)"><text x="416.31085205078125" y="0" font-family="Virgil, Segoe UI Emoji" font-size="46.51684834097613px" fill="#000000" text-anchor="middle" style="white-space: pre;" direction="ltr" dominant-baseline="text-before-edge">Image Generation Routing Wireframe</text></g></svg>